<?xml version="1.0" standalone="no"?>
<!DOCTYPE svg PUBLIC "-//W3C//DTD SVG 1.1//EN" "http://www.w3.org/Graphics/SVG/1.1/DTD/svg11.dtd" >
<svg xmlns="http://www.w3.org/2000/svg" xmlns:xlink="http://www.w3.org/1999/xlink" version="1.1">
<metadata>
Created by FontForge 20150501 at Mon Nov 20 19:43:24 2017
 By David Rizo Valero
Copyright \(c\) 2015, David Rizo Valero
</metadata>
<defs>
<font id="Capitan-Regular" horiz-adv-x="757" >
  <font-face 
    font-family="Capitan"
    font-weight="400"
    font-variant="small-caps"
    font-stretch="normal"
    units-per-em="2048"
    panose-1="2 0 5 3 0 0 0 0 0 0"
    ascent="1638"
    descent="-410"
    x-height="102"
    cap-height="391"
    bbox="-6 -2189 2212 1477"
    underline-thickness="102.4"
    underline-position="-307.2"
    unicode-range="U+0020-007A"
  />
<missing-glyph horiz-adv-x="745" 
d="M610 0h-542v1364h542v-1364zM135 1296v-1228h408v1228h-408z" />
    <glyph glyph-name=".notdef" horiz-adv-x="745"
d="M610 0h-542v1364h542v-1364zM135 1296v-1228h408v1228h-408z" />
    <glyph glyph-name="space" unicode=" " horiz-adv-x="1228"
 />
    <glyph glyph-name="plus" unicode="+" horiz-adv-x="616"
d="M469 -18c27 12 51 22 74 32c20 10 37 17 49 21s18 4 18 2c0 -6 -4 -22 -10 -51c-8 -27 -14 -41 -16 -41c-6 -2 -15 -7 -25 -13c-10 -4 -19 -8 -27 -14c-10 -4 -18 -8 -24 -10c-4 -2 -11 -4 -19 -8c-10 -4 -16 -9 -20 -11c-2 -84 -2 -159 -2 -225c0 -2 -14 -14 -45 -37
s-47 -33 -49 -33c-4 0 -6 84 -6 250c-35 -18 -78 -39 -127 -59v-41v-33v-24c-2 -6 -2 -13 -2 -17v-6c0 -2 -14 -14 -43 -37c-31 -23 -48 -33 -50 -33s-2 50 -4 148c-43 -18 -77 -35 -102 -45s-37 -12 -37 -10c0 4 2 20 8 47c6 29 13 43 15 43s40 18 114 53v209
c-47 -20 -81 -35 -104 -45c-23 -8 -33 -10 -33 -8c0 4 2 20 8 49c6 27 13 41 15 41c4 0 42 18 114 53v233c0 2 9 11 25 25c14 14 31 31 49 45c16 14 27 21 29 21s2 -93 0 -275l125 58v126c0 2 16 19 47 48s49 43 55 43c2 0 2 -57 2 -170c45 20 79 35 104 45c23 8 35 10 35 8
s-2 -13 -4 -27c-4 -14 -8 -31 -12 -45c-6 -14 -8 -22 -10 -22l-74 -35l-39 -17c-2 -45 -2 -114 -2 -208zM242 -123c14 6 34 17 63 29c27 14 48 25 62 31v204l-125 -55v-109v-100z" />
    <glyph glyph-name="hyphen" unicode="-" horiz-adv-x="391"
d="M313 301c14 0 25 -2 33 -6c8 -6 17 -17 23 -33s12 -41 16 -76c2 -35 4 -82 4 -137c0 -49 -22 -103 -65 -160c-45 -57 -97 -104 -152 -141c-57 -35 -104 -53 -141 -53c-23 0 -33 317 -33 954c0 195 57 293 174 293h4l17 -2c0 -2 -3 -4 -7 -6c-55 -43 -82 -115 -84 -213
c0 -10 0 -71 -2 -180s-2 -195 -2 -256c-2 -63 0 -106 2 -131c2 0 9 6 19 16s25 23 41 37s35 29 53 43s37 27 55 37s35 14 45 14zM156 -211c10 0 26 6 49 18s43 29 61 52s29 43 29 61c0 113 -4 188 -12 223s-25 54 -52 54c-16 0 -40 -14 -75 -43c-35 -31 -52 -52 -50 -66
c0 -10 1 -25 3 -43c2 -100 6 -168 12 -203s17 -53 35 -53z" />
    <glyph glyph-name="period" unicode="." horiz-adv-x="135"
d="M70 102c-18 0 -36 7 -50 19s-20 29 -20 47s9 35 23 47s29 18 47 18s33 -6 47 -18c12 -12 18 -29 18 -47s-6 -35 -18 -47c-14 -12 -29 -19 -47 -19z" />
    <glyph glyph-name="equal" unicode="=" horiz-adv-x="344"
d="M328 377c10 0 16 -7 16 -17v-1028c0 -16 -9 -24 -25 -24h-26c-16 0 -25 8 -25 24v306c0 14 -12 22 -35 22c-39 0 -106 -20 -202 -61l-6 -2l-5 -3h-4c-10 0 -16 7 -16 19v1055c0 16 9 24 25 24h26c16 0 25 -8 25 -24v-342c0 -6 6 -11 20 -11c16 0 41 5 72 13s55 16 78 24
l35 10l2 3h6l30 10c2 2 5 2 9 2zM88 -188c2 0 4 0 6 -2h6c35 0 76 11 125 38l-30 31c-2 2 -5 6 -5 12s3 11 5 13l22 22c2 2 6 4 10 4c2 0 7 -2 13 -4l28 -28v217l-28 -29c-2 -2 -7 -4 -13 -4s-8 2 -10 4l-22 23c-2 2 -5 4 -5 10s3 10 5 12l65 66h-10c-35 0 -74 -12 -121 -37
l27 -29c2 -6 4 -10 4 -12c0 -4 -2 -8 -4 -10l-23 -23c-2 -2 -4 -2 -8 -2l-14 2c-10 10 -19 17 -25 23s-10 8 -10 6v-221l35 32c2 2 6 4 10 4c2 0 6 -2 12 -4l23 -22c2 -6 4 -11 4 -13s-2 -6 -4 -12z" />
    <glyph glyph-name="A" unicode="A" horiz-adv-x="352"
d="M340 1024c0 -6 0 -332 2 -979s2 -971 2 -973s-18 -18 -53 -49s-53 -45 -55 -45l-5 512c-2 342 -4 661 -4 954c-2 293 -2 465 0 512c2 0 7 3 17 9c2 2 12 8 32 20s41 25 64 39zM113 1024c0 -6 2 -332 4 -979s2 -971 2 -973s-16 -18 -51 -49s-56 -45 -58 -45s-2 170 -4 512
s-4 661 -4 954c-2 293 -2 465 0 512c2 0 6 3 14 9c2 2 15 8 35 20s42 25 62 39z" />
    <glyph glyph-name="B" unicode="B" horiz-adv-x="120"
d="M113 1024c0 -4 2 -328 4 -975c2 -645 2 -967 2 -969s-18 -18 -53 -51s-54 -49 -56 -49s-4 330 -6 987c-4 659 -6 989 -4 991c2 0 41 23 113 66z" />
    <glyph glyph-name="C" unicode="C" horiz-adv-x="53"
d="M0 463c0 2 9 10 25 24c14 14 22 23 24 23s2 -152 2 -457c0 -2 -2 -4 -6 -10l-16 -16l-17 -17c-6 -6 -8 -8 -10 -8s-2 154 -2 461z" />
    <glyph glyph-name="D" unicode="D" horiz-adv-x="55"
d="M0 463c0 2 9 10 25 26c16 14 24 23 26 23s2 -68 2 -205c0 -2 -8 -10 -24 -26s-25 -25 -27 -25s-2 70 -2 207z" />
    <glyph glyph-name="E" unicode="E" horiz-adv-x="69"
d="M2 195c0 2 10 12 33 32c20 18 31 29 33 29s2 -64 0 -193c0 -2 -11 -14 -31 -34s-33 -31 -35 -31v197z" />
    <glyph glyph-name="F" unicode="F" horiz-adv-x="282"
d="M281 344c0 -2 -14 -29 -41 -80l-164 -90v-92c0 -2 -12 -16 -35 -43s-37 -39 -39 -39s-2 84 -2 252c0 2 12 14 35 39s35 37 37 37s2 -27 2 -82c33 16 76 36 129 63c51 25 78 37 78 35z" />
    <glyph glyph-name="G" unicode="G" horiz-adv-x="311"
d="M307 324c2 0 4 -82 4 -244c0 -2 -12 -16 -37 -41c-27 -27 -41 -39 -43 -39s-2 59 -2 178c-39 18 -98 49 -182 90l-45 76c0 2 29 -8 84 -31c55 -25 104 -45 143 -63c2 2 9 10 23 22c12 12 25 25 37 35c10 10 16 17 18 17z" />
    <glyph glyph-name="H" unicode="H" horiz-adv-x="309"
d="M305 326c2 0 4 -82 4 -244c0 -2 -12 -16 -37 -41c-27 -27 -41 -39 -43 -39l-4 82c-27 14 -61 32 -106 57l-45 76c0 2 18 -6 55 -20c37 -16 69 -31 96 -43v26c-37 18 -96 49 -180 90l-45 76c0 2 29 -8 84 -31c55 -25 104 -45 143 -63c2 2 9 10 23 22c12 12 25 25 37 35
c10 10 16 17 18 17z" />
    <glyph glyph-name="T" unicode="T" horiz-adv-x="2048"
 />
    <glyph glyph-name="bracketleft" unicode="[" horiz-adv-x="1384"
d="M18 0c-2 0 -6 4 -12 12c-6 6 -8 13 -8 17c0 2 4 14 10 37s19 53 35 92s36 80 61 123s58 86 99 131s86 86 137 123c49 35 110 65 182 88s150 34 232 34c74 0 141 -8 204 -24c63 -18 115 -41 158 -68s80 -57 115 -92c33 -35 60 -69 78 -102s33 -64 45 -95s20 -53 24 -69
s6 -27 6 -31c0 -8 -16 -39 -47 -92c-33 -55 -51 -82 -55 -82c-2 0 -4 9 -6 23c-4 23 -8 43 -10 59c-4 16 -13 43 -25 80c-14 37 -29 69 -45 96s-41 57 -72 92c-33 33 -67 59 -106 82s-91 41 -150 55s-124 23 -196 23c-59 0 -117 -11 -172 -29s-105 -42 -146 -73
c-43 -31 -81 -64 -118 -99c-37 -37 -68 -73 -95 -108c-27 -37 -47 -70 -65 -101s-31 -55 -41 -73s-15 -29 -17 -29zM758 279c0 16 -4 31 -10 45c-6 12 -17 22 -29 30c-14 6 -29 11 -45 11c-23 0 -44 -9 -60 -25c-18 -18 -26 -38 -26 -61c0 -25 8 -46 26 -60
c16 -16 37 -24 60 -24c25 0 45 8 61 24c14 14 23 35 23 60z" />
    <glyph glyph-name="bracketright" unicode="]" horiz-adv-x="1341"
d="M1313 14c4 0 8 -4 14 -12s8 -14 8 -16c0 -10 0 -25 -2 -43c-2 -16 -6 -50 -14 -99c-8 -47 -21 -94 -35 -139c-14 -43 -39 -92 -72 -145s-71 -101 -114 -140c-45 -39 -104 -69 -176 -96s-154 -39 -242 -39c-80 0 -153 9 -221 27s-125 43 -170 72c-47 31 -88 63 -125 100
c-35 39 -64 75 -84 110c-18 35 -35 70 -49 103s-23 58 -27 76s-6 28 -6 34c0 4 4 17 14 35c10 20 23 41 37 64s27 41 39 59s19 29 21 29s4 -11 6 -31s8 -47 16 -80c10 -33 23 -69 39 -108s41 -78 74 -117c31 -39 69 -76 114 -109c43 -31 102 -57 174 -77s150 -31 238 -31
c63 0 123 11 178 31c53 23 98 49 135 82c35 35 68 71 97 112c27 41 49 82 65 123s31 78 41 111c10 35 17 62 21 82zM702 -313c-25 0 -45 8 -63 26s-29 41 -29 66s11 45 29 63s38 29 63 29c27 0 48 -9 66 -27s27 -38 27 -65s-9 -48 -27 -66s-39 -26 -66 -26z" />
    <glyph glyph-name="a" unicode="a"
d="M754 -918c-12 -10 -25 -20 -35 -30s-21 -17 -27 -23s-12 -10 -18 -16c-6 -4 -10 -8 -12 -10s-7 -5 -11 -7c-2 -2 -2 -2 -4 -2v13v39v57v78c-2 31 -2 61 -2 92v109c-2 41 -2 79 -2 118c-12 0 -100 5 -266 13c-166 10 -252 14 -260 14v-445c-14 -14 -29 -26 -41 -38
c-14 -10 -25 -21 -33 -29c-10 -6 -16 -10 -18 -12s-7 -5 -9 -7s-4 -2 -6 -2c0 111 -2 461 -4 1053s-6 887 -8 887l119 86v-506c18 0 102 -4 256 -10c152 -6 239 -10 266 -10v81v78v70c-2 23 -2 43 -2 61v52c-2 14 -2 29 -2 41v30v21l-2 6l121 86v-1938zM117 -123
c18 0 106 -4 262 -10c154 -6 241 -10 264 -10c0 121 0 213 -2 276c-23 0 -114 4 -274 12c-162 8 -244 13 -250 13v-281zM639 360c-27 0 -119 5 -277 15c-158 8 -239 12 -245 12v-102c33 0 121 -3 262 -9s229 -10 262 -12v49c-2 23 -2 37 -2 47zM117 -346
c27 -2 113 -6 258 -12s235 -9 268 -9v91c-16 0 -106 4 -270 12s-250 12 -256 12v-94z" />
    <glyph glyph-name="b" unicode="b"
d="M741 23c0 -117 -34 -213 -104 -293c-70 -78 -156 -121 -258 -127c6 -338 10 -539 10 -602c0 -72 -6 -134 -20 -187s-33 -94 -56 -121s-46 -47 -69 -61c-25 -14 -49 -21 -72 -21c-61 0 -92 46 -92 138c0 35 20 74 61 121c31 35 47 41 47 16c0 -6 -2 -17 -4 -31
c-4 -14 -8 -27 -10 -39l-6 -37c-2 -12 0 -22 6 -30c6 -6 15 -11 27 -11c61 0 96 82 104 244c8 164 1 373 -22 625c-88 16 -160 59 -211 129c-51 72 -78 163 -78 276c0 23 4 47 10 76c6 31 17 59 29 90c10 33 25 63 39 98c14 33 31 64 45 95c14 29 31 57 45 86
c14 27 29 51 39 71c10 18 20 35 28 47c6 12 11 19 11 21c0 41 0 116 2 227s2 213 4 307s2 142 2 144c0 31 25 72 76 125c49 51 87 78 114 78c43 0 74 -21 97 -62s32 -90 30 -149c0 -25 -4 -55 -12 -90s-19 -72 -31 -107c-12 -37 -27 -74 -41 -111c-14 -39 -31 -73 -45 -106
c-16 -33 -31 -61 -43 -88s-22 -48 -28 -62l-13 -24c0 2 0 -14 2 -49c0 -35 2 -86 4 -158s2 -145 4 -225c35 14 70 22 109 22c51 0 96 -8 135 -26s68 -43 86 -70s31 -53 39 -78c6 -27 10 -48 10 -71zM383 1401c-6 0 -19 -14 -39 -41c-20 -29 -31 -50 -31 -64
c0 -41 5 -133 15 -276c8 -143 16 -215 22 -213c6 0 18 25 41 76s43 112 66 186c20 72 28 131 26 178c-2 31 -10 59 -22 84c-14 25 -27 43 -41 53s-27 17 -37 17zM90 43c0 -86 18 -156 53 -207s78 -87 131 -110c-6 109 -14 223 -20 344c-27 -23 -53 -62 -82 -113
c0 18 6 47 18 88s33 80 60 115c-2 43 -4 113 -4 205v165c-43 -80 -78 -163 -109 -251s-47 -168 -47 -236zM389 -299c80 0 141 20 184 59c43 41 64 96 64 168c0 51 -23 96 -70 135c-47 41 -104 62 -172 62c-14 0 -24 0 -30 -2c2 -27 4 -166 10 -422h14z" />
    <glyph glyph-name="c" unicode="c" horiz-adv-x="839"
d="M299 -96c0 -4 0 -13 -2 -23s-8 -23 -14 -41c-8 -16 -19 -33 -29 -49c-10 -14 -27 -29 -45 -39s-41 -16 -66 -16c-31 0 -55 6 -75 18s-35 30 -43 53c-10 23 -17 45 -19 68c-4 23 -6 49 -6 80c0 104 47 199 139 283s197 124 318 124c63 0 121 -11 172 -34
c49 -25 87 -58 116 -97c27 -39 50 -82 64 -129s20 -94 20 -143c0 -55 -9 -125 -32 -209s-49 -170 -84 -258s-74 -180 -117 -276c-43 -94 -84 -183 -127 -267s-84 -157 -119 -225c-37 -66 -67 -119 -92 -158c-27 -39 -41 -57 -45 -57c-2 0 -2 0 -2 2c-2 2 -2 4 0 6l2 10v13
v10c0 6 27 62 78 164c51 104 107 219 168 346c59 129 117 267 168 414s75 264 75 348c0 115 -34 206 -106 276s-154 105 -242 105c-131 0 -217 -43 -260 -127c-29 -57 -29 -111 0 -158c18 -29 41 -43 72 -43h43c14 2 25 2 33 4l24 6c6 2 13 4 17 6c2 2 6 5 8 7s4 4 6 4
c2 2 2 2 2 4v-2z" />
    <glyph glyph-name="d" unicode="d" horiz-adv-x="999"
d="M459 369c16 0 24 -12 24 -39v-2263c0 -16 -2 -27 -6 -31s-10 -6 -18 -6h-17h-12c-2 2 -6 4 -8 10s-4 15 -4 27v1609c-10 31 -29 48 -56 48h-247c-6 0 -13 -1 -17 -3c-4 0 -10 -4 -16 -12c-6 -6 -12 -19 -14 -33v-36c0 -14 -9 -21 -25 -21h-18c-16 0 -25 7 -25 21v708
c0 14 9 21 25 21h18c16 0 25 -7 25 -21v-20c6 -45 22 -68 49 -68h239c35 0 56 27 62 80c2 18 10 29 24 29h17zM356 -109c35 0 56 25 62 76v78c-10 31 -29 47 -56 47h-247h-17c-4 -2 -10 -6 -16 -12c-6 -8 -12 -21 -14 -35v-86c6 -45 22 -68 49 -68h239zM881 10
c49 -88 82 -147 100 -176c10 -14 14 -31 14 -49l-4 -25c-61 -117 -117 -212 -164 -288c-16 -25 -33 -44 -49 -56v-1585c0 -14 -6 -20 -20 -20h-27c-14 0 -20 6 -20 20v1596l-11 16c-4 6 -26 45 -69 117s-68 113 -74 121c-6 6 -8 16 -8 28c0 8 2 19 8 33l113 201
c6 6 8 12 8 16c0 6 -2 12 -8 18c-4 6 -23 40 -54 95s-49 88 -55 98c-8 14 -12 27 -12 33c0 4 2 10 6 16s6 13 6 17l164 286c14 31 31 52 49 60v608c0 14 7 20 21 20h26c14 0 21 -6 21 -20v-631l12 -16c8 -12 31 -52 68 -115s59 -103 65 -117c8 -16 12 -31 12 -41
c0 -6 -2 -14 -6 -22l-114 -195c-4 -8 -7 -14 -7 -20c0 -4 3 -13 9 -23zM752 412l-80 -136l125 -217l82 140zM672 -205l125 -217l82 139l-127 213z" />
    <glyph glyph-name="e" unicode="e" horiz-adv-x="1310"
d="M1161 -588c2 0 16 9 41 27c31 20 47 28 49 26c0 -10 -14 -36 -45 -83s-51 -70 -57 -70c-2 0 -70 -2 -201 -4c-133 -2 -201 -4 -205 -4c-6 0 2 12 25 39s55 61 94 104s80 90 121 139c39 51 73 103 102 158s43 104 43 143c0 20 -4 40 -10 54s-16 26 -26 34
c-10 10 -25 17 -39 23s-31 8 -45 10s-31 2 -45 2s-29 0 -39 -2c-12 -2 -23 -2 -31 -4l-12 -2c-6 0 14 37 61 111s94 147 145 223c49 74 74 113 74 115s-61 4 -186 6s-189 4 -191 2c-2 0 -31 -27 -86 -78c-57 -51 -88 -78 -90 -78s-16 2 -39 6c-25 4 -50 8 -77 10
s-60 5 -95 7c-35 0 -69 -5 -100 -15s-61 -27 -88 -45c-27 -20 -50 -51 -66 -90c-16 -41 -24 -90 -24 -145c0 -59 14 -111 45 -154c29 -43 65 -76 110 -96c43 -20 91 -31 140 -31c25 0 47 2 67 4c20 4 37 9 51 13c14 6 27 10 39 16s23 10 29 14c6 6 10 11 16 13c6 4 9 6 11 6
c0 0 0 -2 2 -6c0 -27 -29 -60 -88 -95s-134 -53 -222 -53c-86 0 -160 29 -221 88s-92 144 -92 250c0 102 41 192 125 272c82 78 172 117 268 117c20 0 41 0 64 -2s41 -6 57 -8c16 -4 31 -8 45 -10c12 -4 23 -7 31 -9l12 -4c2 0 31 33 82 99c51 63 76 96 78 96
c25 0 116 -2 276 -4c160 -4 240 -8 240 -10c0 -6 -11 -25 -31 -58c-23 -33 -46 -69 -75 -112l-88 -129c-31 -43 -56 -80 -74 -109s-27 -43 -25 -43l10 2h25h33c12 0 25 -2 39 -4c12 -2 25 -6 39 -10s27 -11 37 -19s20 -16 30 -26s17 -25 23 -41s8 -36 8 -54
c0 -35 -10 -75 -33 -122s-47 -95 -76 -140c-31 -45 -59 -88 -90 -129l-73 -98c-20 -25 -31 -37 -29 -37c4 0 43 0 115 2s110 2 112 2z" />
    <glyph glyph-name="f" unicode="f" horiz-adv-x="935"
d="M836 -469c2 0 8 4 18 12s23 17 33 23c10 8 14 10 14 8c0 -8 -10 -31 -33 -68s-37 -55 -41 -55c-2 0 -51 -2 -145 -4c-96 -2 -145 -2 -147 -2c-4 0 2 11 18 31c16 23 39 49 68 84s57 71 86 110s52 82 75 125c20 43 31 82 31 115c0 16 -2 31 -8 41c-6 12 -13 23 -21 29
s-16 12 -26 16c-10 6 -23 8 -33 10s-23 2 -33 2s-20 0 -28 -2s-15 -2 -21 -4h-10c-4 0 10 29 41 88c31 57 61 117 94 176s49 88 49 90c0 6 -90 9 -270 9c-2 0 -18 -21 -53 -62c-35 -43 -56 -63 -58 -63s-6 0 -14 2c-10 2 -19 4 -29 6s-25 4 -39 6s-31 2 -45 2
c0 -115 -2 -267 -4 -455c51 2 96 16 139 47c4 4 7 4 7 0c0 -10 -7 -22 -17 -36s-28 -27 -51 -41s-49 -25 -78 -31l-4 -250c-2 -84 -2 -147 -2 -190v-64c0 -41 -16 -78 -47 -113c-33 -33 -61 -49 -88 -49c-10 0 -21 7 -31 17s-16 20 -18 30c-4 10 -6 19 -6 21s6 15 20 35
s23 30 25 30v-8c0 -4 0 -10 2 -16c0 -6 2 -15 4 -21s4 -12 10 -16s12 -6 18 -6c16 0 27 6 33 16c6 12 8 33 8 62c0 6 0 30 2 77c0 47 0 113 2 195v240h-4c-63 0 -116 22 -159 69c-45 47 -68 115 -68 199c0 74 25 140 72 197s103 94 166 108c2 289 -1 434 -7 434
c-2 0 -15 -9 -38 -32c-29 -27 -43 -37 -43 -33c0 6 24 49 75 133c49 82 76 123 80 123c6 0 6 -207 2 -621c20 -2 42 -4 62 -8s37 -8 49 -12l16 -6c2 0 23 26 60 77l55 78h59c37 -2 80 -2 127 -4s90 -2 129 -4s58 -2 58 -4c0 -6 -19 -39 -56 -98s-71 -119 -106 -174
s-51 -84 -49 -84h8c4 0 10 0 16 2h25c8 -2 16 -2 26 -4s19 -7 29 -9s19 -6 27 -12s16 -14 22 -22c6 -10 13 -21 17 -35c4 -12 6 -27 6 -41c0 -43 -18 -98 -55 -168c-39 -70 -74 -129 -109 -178l-53 -72h84c51 2 78 2 80 2zM236 -190c2 293 2 440 2 442
c-102 -20 -154 -96 -154 -227c0 -55 14 -103 43 -140s66 -61 109 -75z" />
    <glyph glyph-name="i" unicode="i" horiz-adv-x="2199"
d="M2185 506c2 -6 2 -41 2 -109v-280c-2 -119 -2 -246 -4 -383c-2 -135 -2 -275 -4 -416s-2 -270 -4 -385c-2 -113 -2 -207 -2 -281l-2 -110c0 -4 -18 -20 -55 -47s-58 -41 -62 -41s-4 498 0 1493c-41 -66 -96 -123 -168 -172c-72 -47 -147 -72 -223 -72
c-51 0 -98 9 -137 27s-68 38 -84 61c-18 23 -33 44 -45 62c-14 18 -23 28 -27 28c-6 0 -17 -11 -35 -31s-40 -42 -63 -67c-25 -25 -58 -48 -101 -68s-88 -30 -135 -30c-31 0 -63 4 -94 12s-59 19 -82 31c-25 12 -47 25 -67 39c-23 14 -40 28 -52 40c-14 14 -24 25 -34 33
s-15 13 -17 13s-8 -9 -18 -23s-25 -33 -43 -53s-39 -41 -62 -64c-25 -20 -55 -39 -92 -53s-76 -20 -115 -20c-104 0 -184 45 -235 135v-86c-2 -27 -2 -51 -2 -74v-55c-2 -16 -2 -29 -2 -39v-15c0 -2 -11 -12 -29 -26s-39 -27 -57 -41c-18 -12 -29 -19 -31 -19s-2 17 -2 52
c-2 35 -2 82 -2 137s0 116 2 184v203c0 70 0 133 2 188c0 55 0 101 2 138v57c0 2 21 24 64 63c41 39 63 60 65 60s2 -50 2 -146c-2 -96 -4 -204 -6 -323c59 109 154 164 283 164c43 0 84 -7 123 -17c37 -10 67 -25 90 -39c23 -16 41 -33 57 -49s29 -31 39 -41
c8 -10 14 -16 16 -16s9 8 19 22s25 33 43 56s40 42 69 65c27 23 66 42 113 58c47 14 99 22 156 22c51 0 96 -6 137 -20s72 -32 92 -50s39 -33 53 -47s25 -22 29 -22s16 8 39 26c20 16 45 36 72 56s63 39 108 55s90 25 135 25c117 0 201 -27 250 -82v182c0 4 21 26 64 65
s65 60 67 60z" />
    <glyph glyph-name="j" unicode="j" horiz-adv-x="1415"
d="M1405 496c2 0 2 -32 2 -95v-249c-2 -102 -2 -215 -4 -338s-2 -246 -4 -371s-2 -238 -2 -340c-2 -100 -2 -184 -2 -250l-2 -98c0 -2 -17 -16 -52 -41c-35 -23 -55 -35 -57 -35c-6 0 -8 426 -2 1276c-33 -59 -81 -113 -147 -158c-68 -45 -142 -67 -222 -67
c-41 0 -79 6 -114 18c-35 14 -63 31 -86 49s-42 40 -58 58s-29 35 -37 47c-10 14 -14 20 -16 20s-6 -6 -16 -16s-21 -23 -33 -37c-14 -14 -31 -29 -49 -47c-20 -18 -42 -35 -62 -49c-23 -14 -46 -27 -73 -37s-53 -15 -80 -15c-88 0 -158 25 -209 76s-76 105 -76 160
c0 18 4 36 10 59c6 20 15 43 27 68s30 47 53 70s47 43 78 61c29 18 66 35 109 45s90 16 141 16c41 0 77 -6 108 -16s54 -25 70 -41c14 -16 27 -33 37 -47c10 -16 16 -31 22 -41c4 -12 9 -18 11 -18s16 11 47 34s67 47 114 70s91 35 132 35c166 0 272 -37 319 -111
c2 96 2 178 2 244c0 4 20 24 59 59s60 52 62 52z" />
    <glyph glyph-name="k" unicode="k" horiz-adv-x="768"
d="M762 500c2 -6 2 -38 2 -97c-2 -59 -2 -135 -4 -231s-2 -190 -4 -278s-4 -166 -6 -234l-2 -100c0 -4 -19 -18 -56 -45c-37 -25 -57 -37 -61 -37c-2 0 -2 116 -2 352c-72 -72 -160 -109 -269 -109c-119 0 -196 41 -235 123c-4 -158 -6 -251 -6 -284c0 -4 -19 -18 -56 -45
c-37 -25 -57 -37 -59 -37s-2 16 -4 49v129v174v193c2 63 2 123 2 176c2 51 2 96 2 131v53c0 2 21 22 64 61c41 37 63 56 65 56s2 -39 2 -119c-2 -80 -4 -173 -6 -277c33 43 78 82 133 115s107 49 150 49c84 0 156 -24 219 -73v59c0 20 0 39 2 53v39v27v10c0 2 20 22 63 61
c41 37 64 56 66 56z" />
    <glyph glyph-name="l" unicode="l" horiz-adv-x="862"
d="M418 289c49 0 98 -5 147 -15c47 -10 95 -25 142 -43c45 -20 81 -49 110 -84c29 -37 43 -77 43 -124c0 -59 -25 -113 -76 -162s-112 -86 -184 -113c-72 -25 -143 -37 -213 -37c-111 0 -202 25 -274 76c-74 51 -111 121 -111 213c0 51 23 100 66 145s96 80 159 107
c63 25 128 37 191 37z" />
    <glyph glyph-name="m" unicode="m" horiz-adv-x="708"
d="M655 283c18 0 33 -70 41 -209c6 -139 8 -320 4 -543c-4 -221 -8 -389 -10 -506c-2 -115 -6 -225 -10 -334v-12v-2c0 -8 -23 -33 -66 -76s-69 -63 -75 -63l6 1300c0 2 -2 0 -4 -2s-7 -4 -13 -10c-6 -4 -14 -10 -22 -16c-10 -6 -21 -13 -33 -21c-12 -6 -25 -14 -39 -22
c-14 -6 -31 -15 -49 -21l-55 -18c-20 -6 -43 -11 -66 -15c-25 -2 -49 -4 -74 -4c-72 0 -120 14 -147 41c-27 29 -41 70 -41 125c0 23 4 45 10 70c6 27 19 55 35 88c14 31 39 61 72 90c33 27 72 53 117 78s104 45 176 59s153 23 243 23z" />
    <glyph glyph-name="n" unicode="n" horiz-adv-x="731"
d="M717 80c2 -4 2 -37 2 -96c-2 -59 -2 -142 -4 -246s-2 -219 -4 -340s-2 -248 -4 -377s-5 -246 -7 -352s-2 -197 -4 -273s-2 -119 -2 -131c0 -18 -20 -51 -59 -98c-41 -47 -70 -70 -84 -70c-23 0 -65 60 -131 179c-68 121 -129 243 -184 370s-84 203 -84 228
c0 20 18 47 55 82c35 35 80 53 133 53c14 0 14 -5 4 -15c-35 -27 -53 -47 -55 -63c-2 -2 -2 -6 -2 -8c0 -23 36 -101 112 -236s124 -205 142 -209c2 244 12 698 26 1368c-53 -43 -113 -75 -176 -102c-63 -25 -127 -37 -186 -37c-16 0 -35 2 -55 6c-20 6 -43 15 -66 25
c-25 10 -45 28 -59 51c-16 25 -25 53 -25 88c0 51 20 101 59 154c39 51 87 94 142 131c55 35 111 65 166 88s98 35 131 35c27 0 57 -7 90 -19c31 -14 61 -36 88 -69s41 -72 41 -117z" />
    <glyph glyph-name="o" unicode="o" horiz-adv-x="743"
d="M2 -111c0 102 59 197 176 281c106 78 215 117 328 119c117 2 186 -41 209 -133c4 -18 6 -39 6 -62c0 -8 4 -289 10 -846c6 -555 8 -843 8 -866c0 -16 -24 -36 -71 -61c-49 -25 -83 -37 -99 -37c-14 0 -53 43 -116 131s-124 182 -179 280c-57 100 -86 164 -86 191
c0 23 14 49 45 80s50 47 58 47c4 -2 6 -6 4 -14s-4 -19 -6 -33c-4 -14 -6 -21 -6 -23c0 -6 55 -82 166 -223s170 -213 178 -215v217c0 2 -54 74 -158 217s-158 226 -158 244s16 47 47 90s50 65 58 65c2 0 4 -2 6 -8v-22v-25c-2 -8 -2 -16 -2 -24v-15c0 -6 16 -28 51 -67
s69 -76 104 -111s52 -53 52 -51v31v75v105c0 41 0 84 2 127v131v125c-2 39 -2 73 -2 104v72c-2 18 -2 29 -4 29s-21 -9 -54 -27c-35 -16 -78 -33 -129 -51c-53 -16 -104 -25 -155 -25c-80 0 -148 14 -201 45c-55 31 -82 76 -82 133z" />
    <glyph glyph-name="p" unicode="p" horiz-adv-x="407"
d="M178 -117l-112 -37l24 117l-90 80l115 37l24 117l90 -80l113 37l-25 -117l89 -80l-113 -37l-25 -117z" />
    <glyph glyph-name="q" unicode="q" horiz-adv-x="2226"
d="M2210 502c2 0 2 -35 2 -103v-266c-2 -109 -2 -229 -4 -362c-2 -131 -2 -263 -4 -396s-4 -253 -6 -362s-3 -196 -3 -266l-2 -105c0 -4 -20 -18 -59 -45c-41 -27 -64 -39 -66 -39c-6 0 -8 442 -2 1327c-45 -41 -96 -75 -153 -102s-113 -41 -168 -41c-59 0 -109 4 -152 12
c-43 10 -74 21 -92 33c-20 12 -35 25 -45 37s-18 23 -22 31c-4 10 -9 14 -13 14s-10 -4 -16 -14l-33 -33c-14 -12 -32 -25 -55 -39c-23 -12 -55 -23 -98 -33c-43 -8 -91 -12 -144 -12c-45 0 -86 4 -123 12s-66 19 -86 29c-20 12 -37 25 -51 35c-14 12 -27 22 -33 30
s-10 13 -12 13s-15 -9 -33 -25c-20 -16 -42 -35 -69 -53s-62 -37 -107 -53c-47 -16 -94 -25 -145 -25c-127 0 -218 29 -273 84c-2 -18 -2 -39 -2 -57s0 -36 -2 -50v-43v-36c0 -10 0 -19 -2 -27v-16v-7c0 -2 -11 -10 -31 -24s-41 -27 -61 -39s-31 -18 -33 -18s-2 10 -4 30
c0 20 0 47 -2 82v119v143v150c2 49 2 96 2 143c2 45 2 86 2 121v84c2 23 2 33 2 35c0 4 23 24 68 61s70 56 74 56v-136c0 -49 -2 -151 -4 -305c43 59 102 113 178 156s145 63 211 63c51 0 98 -6 137 -16s68 -23 84 -37s31 -29 41 -39s18 -16 22 -16c2 0 11 4 23 12
c10 8 27 19 47 31c18 12 43 25 70 37s59 22 102 30s88 13 135 13c63 0 119 -9 166 -23c47 -16 82 -35 102 -53c18 -18 36 -37 50 -51c14 -16 22 -25 26 -25c6 0 19 9 33 23l49 49c18 18 47 35 90 49s93 20 150 20c84 0 151 -11 202 -34v49v39v30c0 8 1 15 3 21v6
c0 2 11 13 34 33c23 18 45 39 68 57s35 27 37 27zM451 -158c92 0 164 10 213 33c47 23 71 53 71 88c0 18 -10 39 -33 66c-23 25 -53 46 -96 69c-43 20 -90 31 -137 31c-86 0 -156 -18 -207 -57s-78 -76 -78 -107c0 -20 12 -41 35 -59s55 -35 98 -47c41 -10 87 -17 134 -17z
M1171 -100c84 0 144 6 181 18s55 35 55 70c0 18 -14 38 -43 65c-31 25 -68 48 -113 66s-86 28 -123 28c-76 0 -139 -8 -190 -26s-76 -39 -76 -62c0 -37 37 -73 109 -108s137 -51 200 -51zM1784 -125c72 0 135 12 188 37c51 25 78 55 78 94c0 31 -27 61 -78 92
c-53 29 -112 43 -178 43c-49 0 -92 -6 -129 -20s-64 -33 -78 -51c-16 -18 -24 -40 -24 -60c0 -31 22 -61 69 -92c47 -29 97 -43 152 -43z" />
    <glyph glyph-name="r" unicode="r" horiz-adv-x="1402"
d="M1384 432c2 0 2 -33 2 -96v-252c-2 -104 -2 -217 -2 -342c-2 -125 -2 -250 -4 -375s-2 -240 -4 -344c-2 -102 -2 -186 -2 -254l-2 -98c0 -2 -18 -16 -53 -41s-55 -37 -57 -37s-2 63 -2 190c-2 127 -2 316 0 568v532c-39 -51 -94 -92 -166 -125c-72 -31 -144 -47 -220 -47
c-39 0 -71 4 -100 10c-31 8 -53 19 -69 31c-18 12 -33 27 -43 41c-12 14 -21 29 -25 43c-6 14 -10 29 -12 41s-4 23 -4 29c-2 8 -3 12 -5 12s-6 -6 -16 -20c-10 -12 -25 -30 -43 -48s-40 -37 -63 -55c-25 -18 -53 -33 -88 -47c-35 -12 -70 -18 -107 -18
c-78 0 -137 22 -176 69c-2 -90 -4 -169 -4 -237c0 -2 -18 -16 -53 -41c-35 -23 -56 -35 -58 -35s-2 16 -2 47v121v166v184c2 59 2 115 2 166v125l2 49c0 2 21 22 60 57s59 54 61 54s2 -14 2 -45v-129c0 -55 -2 -111 -4 -170c80 100 184 151 315 151c45 0 86 -4 121 -14
s64 -23 82 -37s35 -29 47 -43c10 -14 21 -27 27 -37s8 -14 10 -14s15 6 33 20s40 29 67 45c25 16 56 33 93 47c35 14 69 21 100 21c113 0 191 -23 238 -70c2 57 2 105 2 142c0 2 20 22 59 57s59 53 61 53zM348 -147c59 0 117 16 172 47c55 33 84 67 84 104
c0 39 -25 71 -72 94c-47 25 -106 37 -178 37c-51 0 -94 -12 -129 -39c-37 -25 -55 -51 -55 -80c0 -49 18 -87 59 -118c39 -31 78 -45 119 -45zM950 -162c63 0 126 12 185 37c59 27 88 59 88 98c0 35 -23 70 -68 105s-101 53 -164 53c-68 0 -125 -14 -172 -43
c-47 -27 -71 -61 -71 -100c0 -37 16 -72 47 -103s83 -47 155 -47z" />
    <glyph glyph-name="s" unicode="s" horiz-adv-x="813"
d="M807 506c2 -6 2 -39 2 -100c0 -63 0 -146 -2 -248s-4 -201 -6 -295c-2 -92 -4 -176 -6 -248l-2 -107c0 -2 -19 -18 -58 -45s-61 -41 -63 -41c-4 0 -6 136 -6 404c-72 -80 -168 -119 -289 -119c-109 0 -191 27 -246 82v-139c-2 -45 -2 -80 -2 -105l-2 -37
c0 -4 -18 -20 -57 -47s-62 -39 -66 -39c-2 0 -2 17 -2 52c-2 35 -2 82 -2 137s0 116 2 184v205c0 68 0 131 2 186c0 55 0 103 2 140v57c0 4 23 27 66 66s67 57 69 57s2 -12 2 -37v-129c-2 -61 -2 -115 -2 -162c37 33 82 60 133 78s99 29 138 29c111 0 197 -25 258 -72
c2 68 2 123 2 170c0 4 22 27 65 66s68 57 70 57zM408 -164c129 0 217 16 260 47v160c-31 27 -72 52 -127 70s-109 26 -160 26c-115 0 -195 -14 -242 -45l-4 -141c29 -33 68 -61 115 -84s99 -33 158 -33z" />
    <glyph glyph-name="t" unicode="t" horiz-adv-x="854"
d="M412 285c47 0 96 -5 145 -15c47 -10 94 -25 141 -43c45 -20 82 -49 111 -84s43 -78 43 -125c0 -59 -25 -112 -76 -161c-51 -47 -112 -84 -184 -109s-141 -37 -211 -37c-111 0 -200 25 -272 74s-109 121 -109 213c0 76 45 142 133 201c88 57 181 86 279 86zM453 -221
c66 0 123 16 170 51s69 86 69 158c0 51 -39 102 -117 153c-80 51 -145 76 -198 76c-18 0 -38 -2 -58 -6c-20 -6 -42 -15 -67 -29s-45 -34 -59 -65c-16 -31 -25 -66 -25 -109c0 -55 34 -106 104 -155s130 -74 181 -74z" />
    <glyph glyph-name="u" unicode="u" horiz-adv-x="602"
d="M582 37c2 -8 2 -51 2 -127c-2 -76 -2 -178 -2 -303c-2 -125 -2 -246 -2 -363c-2 -117 -2 -217 -2 -305c-2 -88 -3 -131 -3 -133c0 -14 -8 -43 -22 -88c-16 -43 -31 -66 -41 -66c-8 0 -21 197 -37 590l-24 590c-2 0 -16 -11 -43 -29c-29 -18 -68 -39 -117 -57
c-51 -18 -103 -29 -158 -29c-35 0 -67 16 -94 47c-29 33 -43 81 -43 140c0 51 16 102 47 151s70 90 115 123c45 31 92 58 139 76s86 29 119 29c47 0 81 -9 106 -25c23 -16 39 -41 47 -74c8 -35 13 -84 13 -147zM281 -195c41 0 88 29 139 84s78 109 78 160
c0 43 -12 84 -39 121c-27 35 -57 53 -90 53c-49 0 -103 -27 -158 -82c-57 -55 -86 -113 -86 -174c0 -49 14 -88 41 -117c27 -31 66 -45 115 -45z" />
    <glyph glyph-name="v" unicode="v" horiz-adv-x="712"
d="M702 82c2 0 0 -141 -2 -424c-4 -281 -8 -574 -12 -879c-6 -303 -8 -464 -8 -487c0 -18 -20 -51 -59 -98c-39 -45 -68 -68 -82 -68c-23 0 -66 59 -129 176c-63 119 -124 240 -179 365s-81 200 -81 225c0 6 4 17 12 31s21 31 35 45c14 16 32 31 57 41s51 16 80 16
c12 0 12 -4 2 -14c-35 -31 -53 -54 -53 -72c0 -23 36 -100 110 -233c72 -133 119 -201 137 -203c2 236 11 685 25 1347c-51 -41 -109 -73 -172 -100c-63 -25 -123 -37 -182 -37c-16 0 -36 2 -54 6c-20 6 -42 15 -65 25s-43 28 -57 51c-16 25 -25 53 -25 88
c0 49 18 99 59 150c39 51 85 94 138 131c53 35 106 65 161 88c53 23 96 33 129 33c47 0 95 -19 144 -54c47 -35 71 -86 71 -149zM319 -180c37 0 76 8 115 22c39 16 76 43 109 78c31 35 47 76 47 121c0 43 -14 82 -43 119s-70 55 -121 55c-47 0 -110 -27 -186 -82
c-78 -55 -117 -109 -117 -160c0 -43 16 -77 47 -108s81 -45 149 -45z" />
    <glyph glyph-name="w" unicode="w" horiz-adv-x="716"
d="M0 -113c0 104 57 199 172 283c104 76 211 115 320 117c113 0 178 -45 198 -137c2 -18 4 -38 4 -58c0 -8 5 -289 11 -842s8 -839 8 -862c0 -16 -23 -36 -70 -61s-78 -37 -92 -37s-54 43 -113 131c-61 88 -119 181 -174 279c-55 100 -82 163 -82 190c0 20 14 47 43 78
c29 33 48 49 56 49c4 -2 6 -8 4 -16s-4 -19 -6 -33c-4 -12 -7 -21 -7 -23c0 -6 54 -78 160 -219s164 -213 172 -215v215c0 2 -51 74 -153 215c-102 143 -154 226 -154 244s16 47 47 90s49 66 57 66c2 0 5 -3 7 -9v-22v-25c-2 -8 -2 -16 -2 -24v-15c0 -6 16 -28 49 -67
s65 -76 100 -111c33 -35 49 -51 49 -49l2 29v75v105v125v131v123v104c-2 31 -2 56 -2 74c-2 18 -2 27 -4 27s-20 -9 -51 -25c-33 -16 -74 -33 -125 -51c-51 -16 -101 -25 -150 -25c-78 0 -143 14 -194 45c-53 31 -80 76 -80 131zM330 -180c27 0 55 4 86 10c29 8 57 21 86 37
s53 38 71 67c18 31 27 66 27 105c0 55 -14 98 -45 127s-70 43 -113 43c-25 0 -53 -4 -86 -14s-65 -25 -100 -43s-65 -43 -88 -78c-25 -35 -37 -72 -37 -113s18 -75 55 -102s85 -39 144 -39z" />
    <glyph glyph-name="x" unicode="x" horiz-adv-x="407"
d="M178 -117l-112 -37l24 117l-90 80l115 37l24 117l90 -80l113 37l-25 -117l89 -80l-113 -37l-25 -117z" />
    <glyph glyph-name="y" unicode="y" horiz-adv-x="1245"
d="M119 -268c0 -16 -2 -37 -2 -64v-49v-35v-12s-9 -9 -27 -21c-12 -10 -29 -22 -49 -34c-14 -12 -23 -19 -27 -19v47c-2 18 -2 58 -2 115c0 68 0 121 2 160v176c0 100 0 194 2 278v50c0 2 19 20 54 55c37 33 55 51 59 51v-125l-2 -145c10 6 21 14 33 22c51 35 123 54 215 54
c70 0 120 -17 153 -50c20 -23 40 -48 52 -75c4 -10 6 -17 8 -17l4 4c4 2 8 5 16 11c6 6 13 10 21 16c29 23 63 43 102 61c41 18 76 29 109 29c143 0 235 -33 274 -96c2 55 2 125 2 211c0 2 16 18 51 49c33 31 52 45 54 45s2 -27 2 -82c0 -53 -2 -223 -4 -504
c0 -20 0 -110 -2 -268c-2 -160 -3 -272 -3 -342c-2 -59 -2 -131 -2 -217l-2 -84c0 -4 -14 -15 -45 -35c-29 -20 -45 -31 -49 -31c-6 0 -6 367 -2 1098c-14 -27 -30 -51 -53 -74c-23 -25 -47 -45 -74 -61c-27 -18 -57 -33 -90 -43s-65 -17 -98 -17c-74 0 -131 21 -174 60
c-37 33 -64 63 -80 90c-10 12 -15 16 -15 16c-2 0 -6 -4 -14 -12c-4 -4 -15 -15 -29 -31c-27 -31 -59 -57 -94 -86c-41 -29 -86 -43 -133 -43c-53 0 -100 12 -141 37v-63z" />
    <glyph glyph-name="I" unicode="I" horiz-adv-x="1310"
d="M688 305c-2 0 -16 2 -39 6c-25 4 -51 9 -78 11s-59 4 -94 6c-35 0 -69 -5 -100 -15s-61 -27 -88 -45c-27 -20 -50 -51 -66 -90c-16 -41 -24 -90 -24 -145c0 -59 14 -111 45 -154c29 -43 65 -76 110 -96c43 -20 91 -31 140 -31c25 0 47 2 67 4c20 4 37 9 51 13
c14 6 27 10 39 16s23 10 29 14c6 6 10 11 16 13c6 4 9 6 11 6c0 0 0 -2 2 -6c0 -27 -29 -60 -88 -95s-134 -53 -222 -53c-86 0 -160 29 -221 88s-92 144 -92 250c0 102 41 192 125 272c82 78 172 117 268 117c20 0 41 0 64 -2s41 -6 57 -8c16 -4 31 -8 45 -10
c12 -4 23 -7 31 -9l12 -4v-53z" />
    <glyph glyph-name="K" unicode="K" horiz-adv-x="935"
d="M285 -272c2 293 2 440 2 442c-102 -20 -154 -96 -154 -227c0 -55 14 -103 43 -140s66 -61 109 -75zM485 158c-2 0 -6 0 -14 2c-10 2 -19 4 -29 6s-25 4 -39 6s-31 2 -45 2c0 -115 -2 -267 -4 -455c51 2 97 17 140 48c4 4 6 4 6 0c0 -10 -7 -23 -17 -37s-28 -27 -51 -41
s-49 -25 -78 -31l-4 -250c-2 -84 -2 -147 -2 -190v-64c0 -41 -16 -77 -47 -112c-33 -33 -61 -50 -88 -50c-10 0 -21 7 -31 17s-16 20 -18 30c-4 10 -6 19 -6 21s6 15 20 35s23 31 25 31v-9c0 -4 0 -10 2 -16c0 -6 2 -15 4 -21s4 -12 10 -16s13 -6 19 -6c16 0 26 6 32 16
c6 12 9 33 9 62c0 6 0 31 2 78c0 47 0 112 2 194v240h-4c-63 0 -117 22 -160 69c-45 47 -68 115 -68 199c0 74 25 140 72 197s103 94 166 108c2 289 0 434 -6 434c-2 0 -16 -9 -39 -32c-29 -27 -43 -37 -43 -33c0 6 24 49 75 133c49 82 76 123 80 123c6 0 6 -207 2 -621
c20 -2 42 -4 62 -8s37 -8 49 -12l16 -6v-41z" />
    <glyph glyph-name=".null" horiz-adv-x="0"
 />
    <glyph glyph-name="nonmarkingreturn" horiz-adv-x="681"
 />
    <glyph glyph-name="z" unicode="z" horiz-adv-x="1024"
d="M84 55c0 0 -45 -29 -68 -49c-16 -14 35 -71 58 -100s72 2 88 6c16 2 16 -10 45 -35c29 -27 87 -170 325 37c150 131 273 157 328 137c78 -29 41 -114 47 -143c2 -12 158 102 58 194c-70 63 -263 -18 -392 -118c-111 -84 -129 -109 -217 -99c-98 14 -131 133 -131 133
s-44 -48 -69 -30s-72 67 -72 67z" />
  </font>
</defs>
</svg>
