<?xml version="1.0" encoding="UTF-8"?><!DOCTYPE score-partwise PUBLIC "-//Recordare//DTD MusicXML 2.0 Partwise//EN"                                "http://www.musicxml.org/dtds/partwise.dtd"><score-partwise version="2.0">  <movement-title>Sonata in C major, Hob. XVI: 35</movement-title>  <identification>    <creator type="composer">Franz Joseph Haydn,</creator>    <encoding>      <software>Finale 2011 for Macintosh</software>      <software>Dolet Light for Finale 2011</software>      <encoding-date>2013-06-17</encoding-date>      <supports attribute="new-system" element="print" type="yes" value="yes"/>      <supports attribute="new-page" element="print" type="yes" value="yes"/>    </encoding>  </identification>  <defaults>    <scaling>      <millimeters>7.2319</millimeters>      <tenths>40</tenths>    </scaling>    <page-layout>      <page-height>1545</page-height>      <page-width>1194</page-width>      <page-margins type="both">        <left-margin>140</left-margin>        <right-margin>70</right-margin>        <top-margin>88</top-margin>        <bottom-margin>88</bottom-margin>      </page-margins>    </page-layout>    <system-layout>      <system-margins>        <left-margin>0</left-margin>        <right-margin>0</right-margin>      </system-margins>      <system-distance>121</system-distance>      <top-system-distance>70</top-system-distance>    </system-layout>    <staff-layout>      <staff-distance>80</staff-distance>    </staff-layout>    <appearance>      <line-width type="stem">0.7487</line-width>      <line-width type="beam">5</line-width>      <line-width type="staff">0.7487</line-width>      <line-width type="light barline">0.7487</line-width>      <line-width type="heavy barline">5</line-width>      <line-width type="leger">0.7487</line-width>      <line-width type="ending">1.4583</line-width>      <line-width type="wedge">1.4583</line-width>      <line-width type="enclosure">0.7487</line-width>      <line-width type="tuplet bracket">0.7487</line-width>      <note-size type="grace">60</note-size>      <note-size type="cue">60</note-size>    </appearance>    <music-font font-family="Maestro" font-size="20.5"/>    <word-font font-family="Times New Roman" font-size="10.25"/>  </defaults>  <credit page="1">    <credit-words default-x="632" default-y="1458" font-size="24" justify="center" valign="top">Sonata in C major, Hob. XVI: 35</credit-words>  </credit>  <credit page="1">    <credit-words default-x="1124" default-y="1387" font-size="12" justify="right" valign="top">Franz Joseph Haydn,</credit-words>  </credit>  <credit page="1">    <credit-words default-x="632" default-y="1397" font-size="18" justify="center" valign="top">http://humdrum.org/Humdrum/guide02.html</credit-words>  </credit>  <part-list>    <score-part id="P1">      <part-name>Piano</part-name>      <score-instrument id="P1-I1">        <instrument-name>Piano</instrument-name>      </score-instrument>      <midi-instrument id="P1-I1">        <midi-channel>1</midi-channel>        <midi-program>1</midi-program>        <volume>80</volume>        <pan>0</pan>      </midi-instrument>    </score-part>  </part-list>  <!--=========================================================-->  <part id="P1">    <measure number="1" width="223">      <print>        <system-layout>          <system-margins>            <left-margin>70</left-margin>            <right-margin>0</right-margin>          </system-margins>          <top-system-distance>172</top-system-distance>        </system-layout>        <measure-numbering>system</measure-numbering>      </print>      <attributes>        <divisions>4</divisions>        <key>          <fifths>0</fifths>          <mode>major</mode>        </key>        <time>          <beats>3</beats>          <beat-type>4</beat-type>        </time>        <staves>2</staves>        <clef number="1">          <sign>G</sign>          <line>2</line>        </clef>        <clef number="2">          <sign>G</sign>          <line>2</line>        </clef>      </attributes>      <sound tempo="120"/>      <note default-x="85">        <pitch>          <step>E</step>          <octave>5</octave>        </pitch>        <duration>4</duration>        <tie type="start"/>        <voice>1</voice>        <type>quarter</type>        <stem default-y="-40.5">down</stem>        <staff>1</staff>        <notations>          <tied type="start"/>        </notations>      </note>      <note default-x="123">        <pitch>          <step>E</step>          <octave>5</octave>        </pitch>        <duration>3</duration>        <tie type="stop"/>        <voice>1</voice>        <type>eighth</type>        <dot/>        <stem default-y="-35">down</stem>        <staff>1</staff>        <beam number="1">begin</beam>        <notations>          <tied type="stop"/>        </notations>      </note>      <note default-x="154">        <pitch>          <step>F</step>          <octave>5</octave>        </pitch>        <duration>1</duration>        <voice>1</voice>        <type>16th</type>        <stem default-y="-32.5">down</stem>        <staff>1</staff>        <beam number="1">end</beam>        <beam number="2">backward hook</beam>      </note>      <note default-x="172">        <pitch>          <step>D</step>          <octave>5</octave>        </pitch>        <duration>3</duration>        <voice>1</voice>        <type>eighth</type>        <dot/>        <stem default-y="-45">down</stem>        <staff>1</staff>        <beam number="1">begin</beam>      </note>      <note default-x="204">        <pitch>          <step>E</step>          <octave>5</octave>        </pitch>        <duration>1</duration>        <voice>1</voice>        <type>16th</type>        <stem default-y="-40">down</stem>        <staff>1</staff>        <beam number="1">end</beam>        <beam number="2">backward hook</beam>      </note>      <backup>        <duration>12</duration>      </backup>      <note default-x="85">        <rest/>        <duration>4</duration>        <voice>2</voice>        <type>quarter</type>        <staff>2</staff>      </note>      <note default-x="123">        <pitch>          <step>C</step>          <octave>4</octave>        </pitch>        <duration>4</duration>        <voice>2</voice>        <type>quarter</type>        <stem default-y="5.5">up</stem>        <staff>2</staff>      </note>      <note default-x="123">        <chord/>        <pitch>          <step>G</step>          <octave>4</octave>        </pitch>        <duration>4</duration>        <voice>2</voice>        <type>quarter</type>        <stem>up</stem>        <staff>2</staff>      </note>      <note default-x="172">        <pitch>          <step>F</step>          <octave>4</octave>        </pitch>        <duration>4</duration>        <voice>2</voice>        <type>quarter</type>        <stem default-y="5.5">up</stem>        <staff>2</staff>      </note>      <note default-x="184">        <chord/>        <pitch>          <step>G</step>          <octave>4</octave>        </pitch>        <duration>4</duration>        <voice>2</voice>        <type>quarter</type>        <stem>up</stem>        <staff>2</staff>      </note>    </measure>    <!--=======================================================-->    <measure number="2" width="127">      <note default-x="14">        <pitch>          <step>C</step>          <octave>5</octave>        </pitch>        <duration>4</duration>        <voice>1</voice>        <type>quarter</type>        <stem default-y="-50">down</stem>        <staff>1</staff>      </note>      <note default-x="51">        <pitch>          <step>G</step>          <octave>5</octave>        </pitch>        <duration>4</duration>        <voice>1</voice>        <type>quarter</type>        <stem default-y="-30">down</stem>        <staff>1</staff>      </note>      <note default-x="88">        <pitch>          <step>G</step>          <octave>5</octave>        </pitch>        <duration>4</duration>        <voice>1</voice>        <type>quarter</type>        <stem default-y="-30">down</stem>        <staff>1</staff>      </note>      <backup>        <duration>12</duration>      </backup>      <note default-x="14">        <pitch>          <step>E</step>          <octave>4</octave>        </pitch>        <duration>4</duration>        <voice>2</voice>        <type>quarter</type>        <stem default-y="5.5">up</stem>        <staff>2</staff>      </note>      <note default-x="14">        <chord/>        <pitch>          <step>G</step>          <octave>4</octave>        </pitch>        <duration>4</duration>        <voice>2</voice>        <type>quarter</type>        <stem>up</stem>        <staff>2</staff>      </note>      <note default-x="52">        <rest/>        <duration>4</duration>        <voice>2</voice>        <type>quarter</type>        <staff>2</staff>      </note>      <note default-x="89">        <rest/>        <duration>4</duration>        <voice>2</voice>        <type>quarter</type>        <staff>2</staff>      </note>    </measure>    <!--=======================================================-->    <measure number="3" width="156">      <note default-x="16">        <pitch>          <step>G</step>          <octave>5</octave>        </pitch>        <duration>2</duration>        <voice>1</voice>        <type>eighth</type>        <stem default-y="-30">down</stem>        <staff>1</staff>        <beam number="1">begin</beam>      </note>      <note default-x="40">        <pitch>          <step>F</step>          <octave>5</octave>        </pitch>        <duration>2</duration>        <voice>1</voice>        <type>eighth</type>        <stem default-y="-32.5">down</stem>        <staff>1</staff>        <beam number="1">end</beam>      </note>      <note default-x="62">        <pitch>          <step>F</step>          <octave>5</octave>        </pitch>        <duration>2</duration>        <voice>1</voice>        <type>eighth</type>        <stem default-y="-30">down</stem>        <staff>1</staff>        <beam number="1">begin</beam>      </note>      <note default-x="86">        <pitch>          <step>E</step>          <octave>5</octave>        </pitch>        <duration>2</duration>        <voice>1</voice>        <type>eighth</type>        <stem default-y="-32.5">down</stem>        <staff>1</staff>        <beam number="1">end</beam>      </note>      <note default-x="109">        <pitch>          <step>E</step>          <octave>5</octave>        </pitch>        <duration>2</duration>        <voice>1</voice>        <type>eighth</type>        <stem default-y="-40">down</stem>        <staff>1</staff>        <beam number="1">begin</beam>      </note>      <note default-x="132">        <pitch>          <step>D</step>          <octave>5</octave>        </pitch>        <duration>2</duration>        <voice>1</voice>        <type>eighth</type>        <stem default-y="-42">down</stem>        <staff>1</staff>        <beam number="1">end</beam>      </note>      <backup>        <duration>12</duration>      </backup>      <note default-x="16">        <pitch>          <step>G</step>          <octave>4</octave>        </pitch>        <duration>12</duration>        <tie type="start"/>        <voice>3</voice>        <type>half</type>        <dot/>        <stem default-y="5.5">up</stem>        <staff>2</staff>        <notations>          <tied orientation="over" type="start"/>        </notations>      </note>      <backup>        <duration>12</duration>      </backup>      <note default-x="16">        <pitch>          <step>B</step>          <octave>3</octave>        </pitch>        <duration>8</duration>        <voice>4</voice>        <type>half</type>        <stem default-y="-84">down</stem>        <staff>2</staff>      </note>      <note default-x="109">        <pitch>          <step>C</step>          <octave>4</octave>        </pitch>        <duration>4</duration>        <voice>4</voice>        <type>quarter</type>        <stem default-y="-78.5">down</stem>        <staff>2</staff>      </note>    </measure>    <!--=======================================================-->    <measure number="4" width="130">      <note default-x="16">        <pitch>          <step>D</step>          <octave>5</octave>        </pitch>        <duration>4</duration>        <voice>1</voice>        <type>quarter</type>        <stem default-y="-45">down</stem>        <staff>1</staff>      </note>      <note default-x="54">        <pitch>          <step>B</step>          <octave>4</octave>        </pitch>        <duration>4</duration>        <voice>1</voice>        <type>quarter</type>        <stem default-y="-55.5">down</stem>        <staff>1</staff>      </note>      <note default-x="92">        <pitch>          <step>G</step>          <octave>4</octave>        </pitch>        <duration>4</duration>        <voice>1</voice>        <type>quarter</type>        <stem default-y="5.5">up</stem>        <staff>1</staff>      </note>      <backup>        <duration>12</duration>      </backup>      <note default-x="16">        <pitch>          <step>G</step>          <octave>4</octave>        </pitch>        <duration>4</duration>        <tie type="stop"/>        <voice>3</voice>        <type>quarter</type>        <stem default-y="5.5">up</stem>        <staff>2</staff>        <notations>          <tied type="stop"/>        </notations>      </note>      <note default-x="54">        <rest>          <display-step>C</display-step>          <display-octave>4</display-octave>        </rest>        <duration>4</duration>        <voice>3</voice>        <type>quarter</type>        <staff>2</staff>      </note>      <note default-x="92">        <rest>          <display-step>C</display-step>          <display-octave>4</display-octave>        </rest>        <duration>4</duration>        <voice>3</voice>        <type>quarter</type>        <staff>2</staff>      </note>      <backup>        <duration>12</duration>      </backup>      <note default-x="16">        <pitch>          <step>G</step>          <octave>3</octave>        </pitch>        <duration>4</duration>        <voice>4</voice>        <type>quarter</type>        <stem default-y="-93.5">down</stem>        <staff>2</staff>      </note>      <note default-x="54">        <rest/>        <duration>4</duration>        <voice>4</voice>        <type>quarter</type>        <staff>2</staff>      </note>      <note default-x="92">        <rest/>        <duration>4</duration>        <voice>4</voice>        <type>quarter</type>        <staff>2</staff>      </note>    </measure>    <!--=======================================================-->    <measure number="5" width="152">      <note default-x="14">        <pitch>          <step>E</step>          <octave>5</octave>        </pitch>        <duration>4</duration>        <tie type="start"/>        <voice>1</voice>        <type>quarter</type>        <stem default-y="-40.5">down</stem>        <staff>1</staff>        <notations>          <tied type="start"/>        </notations>      </note>      <note default-x="52">        <pitch>          <step>E</step>          <octave>5</octave>        </pitch>        <duration>3</duration>        <tie type="stop"/>        <voice>1</voice>        <type>eighth</type>        <dot/>        <stem default-y="-35">down</stem>        <staff>1</staff>        <beam number="1">begin</beam>        <notations>          <tied type="stop"/>        </notations>      </note>      <note default-x="83">        <pitch>          <step>F</step>          <octave>5</octave>        </pitch>        <duration>1</duration>        <voice>1</voice>        <type>16th</type>        <stem default-y="-32.5">down</stem>        <staff>1</staff>        <beam number="1">end</beam>        <beam number="2">backward hook</beam>      </note>      <note default-x="101">        <pitch>          <step>D</step>          <octave>5</octave>        </pitch>        <duration>3</duration>        <voice>1</voice>        <type>eighth</type>        <dot/>        <stem default-y="-45">down</stem>        <staff>1</staff>        <beam number="1">begin</beam>      </note>      <note default-x="133">        <pitch>          <step>E</step>          <octave>5</octave>        </pitch>        <duration>1</duration>        <voice>1</voice>        <type>16th</type>        <stem default-y="-40">down</stem>        <staff>1</staff>        <beam number="1">end</beam>        <beam number="2">backward hook</beam>      </note>      <backup>        <duration>12</duration>      </backup>      <note default-x="14">        <rest/>        <duration>4</duration>        <voice>2</voice>        <type>quarter</type>        <staff>2</staff>      </note>      <note default-x="52">        <pitch>          <step>C</step>          <octave>4</octave>        </pitch>        <duration>4</duration>        <voice>2</voice>        <type>quarter</type>        <stem default-y="5.5">up</stem>        <staff>2</staff>      </note>      <note default-x="52">        <chord/>        <pitch>          <step>G</step>          <octave>4</octave>        </pitch>        <duration>4</duration>        <voice>2</voice>        <type>quarter</type>        <stem>up</stem>        <staff>2</staff>      </note>      <note default-x="101">        <pitch>          <step>F</step>          <octave>4</octave>        </pitch>        <duration>4</duration>        <voice>2</voice>        <type>quarter</type>        <stem default-y="5.5">up</stem>        <staff>2</staff>      </note>      <note default-x="113">        <chord/>        <pitch>          <step>G</step>          <octave>4</octave>        </pitch>        <duration>4</duration>        <voice>2</voice>        <type>quarter</type>        <stem>up</stem>        <staff>2</staff>      </note>    </measure>    <!--=======================================================-->    <measure number="6" width="127">      <note default-x="14">        <pitch>          <step>C</step>          <octave>5</octave>        </pitch>        <duration>4</duration>        <voice>1</voice>        <type>quarter</type>        <stem default-y="-50">down</stem>        <staff>1</staff>      </note>      <note default-x="51">        <pitch>          <step>C</step>          <octave>6</octave>        </pitch>        <duration>4</duration>        <voice>1</voice>        <type>quarter</type>        <stem default-y="-20.5">down</stem>        <staff>1</staff>      </note>      <note default-x="88">        <pitch>          <step>C</step>          <octave>6</octave>        </pitch>        <duration>4</duration>        <voice>1</voice>        <type>quarter</type>        <stem default-y="-20.5">down</stem>        <staff>1</staff>      </note>      <backup>        <duration>12</duration>      </backup>      <note default-x="14">        <pitch>          <step>E</step>          <octave>4</octave>        </pitch>        <duration>4</duration>        <voice>2</voice>        <type>quarter</type>        <stem default-y="5.5">up</stem>        <staff>2</staff>      </note>      <note default-x="14">        <chord/>        <pitch>          <step>G</step>          <octave>4</octave>        </pitch>        <duration>4</duration>        <voice>2</voice>        <type>quarter</type>        <stem>up</stem>        <staff>2</staff>      </note>      <note default-x="52">        <rest/>        <duration>4</duration>        <voice>2</voice>        <type>quarter</type>        <staff>2</staff>      </note>      <note default-x="88">        <pitch>          <step>E</step>          <octave>3</octave>        </pitch>        <duration>4</duration>        <voice>2</voice>        <type>quarter</type>        <stem default-y="-14.5">up</stem>        <staff>2</staff>      </note>      <note default-x="88">        <chord/>        <pitch>          <step>C</step>          <octave>4</octave>        </pitch>        <duration>4</duration>        <voice>2</voice>        <type>quarter</type>        <stem>up</stem>        <staff>2</staff>      </note>    </measure>    <!--=======================================================-->    <measure number="7" width="632">      <print new-system="yes">        <system-layout>          <system-distance>114</system-distance>        </system-layout>      </print>      <note default-x="65">        <pitch>          <step>G</step>          <alter>1</alter>          <octave>5</octave>        </pitch>        <duration>1</duration>        <voice>1</voice>        <type>16th</type>        <accidental>sharp</accidental>        <stem default-y="-25">down</stem>        <staff>1</staff>        <beam number="1">begin</beam>        <beam number="2">begin</beam>      </note>      <note default-x="118">        <pitch>          <step>A</step>          <octave>5</octave>        </pitch>        <duration>1</duration>        <voice>1</voice>        <type>16th</type>        <stem default-y="-22">down</stem>        <staff>1</staff>        <beam number="1">end</beam>        <beam number="2">end</beam>      </note>      <note default-x="170">        <rest/>        <duration>2</duration>        <voice>1</voice>        <type>eighth</type>        <staff>1</staff>      </note>      <note default-x="254">        <pitch>          <step>E</step>          <octave>5</octave>        </pitch>        <duration>1</duration>        <voice>1</voice>        <type>16th</type>        <stem default-y="-35">down</stem>        <staff>1</staff>        <beam number="1">begin</beam>        <beam number="2">begin</beam>      </note>      <note default-x="306">        <pitch>          <step>F</step>          <octave>5</octave>        </pitch>        <duration>1</duration>        <voice>1</voice>        <type>16th</type>        <stem default-y="-32.5">down</stem>        <staff>1</staff>        <beam number="1">end</beam>        <beam number="2">end</beam>      </note>      <note default-x="358">        <rest/>        <duration>2</duration>        <voice>1</voice>        <type>eighth</type>        <staff>1</staff>      </note>      <note default-x="442">        <pitch>          <step>D</step>          <octave>5</octave>        </pitch>        <duration>1</duration>        <voice>1</voice>        <type>16th</type>        <stem default-y="-50">down</stem>        <staff>1</staff>        <beam number="1">begin</beam>        <beam number="2">begin</beam>      </note>      <note default-x="494">        <pitch>          <step>B</step>          <octave>4</octave>        </pitch>        <duration>1</duration>        <voice>1</voice>        <type>16th</type>        <stem default-y="-55">down</stem>        <staff>1</staff>        <beam number="1">end</beam>        <beam number="2">end</beam>      </note>      <note default-x="546">        <rest/>        <duration>2</duration>        <voice>1</voice>        <type>eighth</type>        <staff>1</staff>      </note>      <backup>        <duration>12</duration>      </backup>      <note default-x="65">        <pitch>          <step>C</step>          <octave>4</octave>        </pitch>        <duration>4</duration>        <voice>2</voice>        <type>quarter</type>        <stem default-y="1">up</stem>        <staff>2</staff>      </note>      <note default-x="65">        <chord/>        <pitch>          <step>F</step>          <octave>4</octave>        </pitch>        <duration>4</duration>        <voice>2</voice>        <type>quarter</type>        <stem>up</stem>        <staff>2</staff>      </note>      <note default-x="254">        <rest/>        <duration>4</duration>        <voice>2</voice>        <type>quarter</type>        <staff>2</staff>      </note>      <note default-x="442">        <pitch>          <step>G</step>          <octave>3</octave>        </pitch>        <duration>4</duration>        <voice>2</voice>        <type>quarter</type>        <stem default-y="1">up</stem>        <staff>2</staff>      </note>      <note default-x="442">        <chord/>        <pitch>          <step>F</step>          <octave>4</octave>        </pitch>        <duration>4</duration>        <voice>2</voice>        <type>quarter</type>        <stem>up</stem>        <staff>2</staff>      </note>    </measure>    <!--=======================================================-->    <measure number="8" width="352">      <note default-x="16">        <pitch>          <step>C</step>          <octave>5</octave>        </pitch>        <duration>4</duration>        <voice>1</voice>        <type>quarter</type>        <stem default-y="-50">down</stem>        <staff>1</staff>      </note>      <note default-x="125">        <rest/>        <duration>4</duration>        <voice>1</voice>        <type>quarter</type>        <staff>1</staff>      </note>      <note default-x="234">        <rest/>        <duration>4</duration>        <voice>1</voice>        <type>quarter</type>        <staff>1</staff>      </note>      <backup>        <duration>12</duration>      </backup>      <note default-x="16">        <pitch>          <step>C</step>          <octave>4</octave>        </pitch>        <duration>4</duration>        <voice>2</voice>        <type>quarter</type>        <stem default-y="-5">up</stem>        <staff>2</staff>      </note>      <note default-x="16">        <chord/>        <pitch>          <step>E</step>          <octave>4</octave>        </pitch>        <duration>4</duration>        <voice>2</voice>        <type>quarter</type>        <stem>up</stem>        <staff>2</staff>      </note>      <note default-x="125">        <rest/>        <duration>4</duration>        <voice>2</voice>        <type>quarter</type>        <staff>2</staff>      </note>      <note default-x="234">        <rest/>        <duration>4</duration>        <voice>2</voice>        <type>quarter</type>        <staff>2</staff>      </note>      <barline location="right">        <bar-style>light-heavy</bar-style>      </barline>    </measure>  </part>  <!--=========================================================--></score-partwise>