<?xml version="1.0" standalone="no"?>
<!DOCTYPE svg PUBLIC "-//W3C//DTD SVG 1.1//EN" "http://www.w3.org/Graphics/SVG/1.1/DTD/svg11.dtd" >
<svg xmlns="http://www.w3.org/2000/svg" xmlns:xlink="http://www.w3.org/1999/xlink" version="1.1">
<metadata>
Created by FontForge 20190317 at Tue Jun 18 11:33:19 2019
 By David Rizo Valero
copyright missing
</metadata>
<defs>
<font id="PatriarcaMensuralMuRET-Regular" horiz-adv-x="1405" >
  <font-face 
    font-family="PatriarcaMensuralMuRET"
    font-weight="400"
    font-stretch="normal"
    units-per-em="1000"
    panose-1="0 0 5 0 0 0 0 0 0 0"
    ascent="800"
    descent="-200"
    bbox="-6 -2012 1650 2012"
    underline-thickness="50"
    underline-position="-100"
    unicode-range="U+0020-F963"
  />
<missing-glyph horiz-adv-x="2012" 
d="M1650 2012v-4024h-1276v4024h1276zM1340 1742h-664v-132h262v-149h-266v-133h668v133h-266v149h266v132zM1074 1223h-402v-418h668v137h-266v281zM938 1086v-144h-133v144h133zM1340 696h-668v-133h266v-149h-266v-132h402v281h266v133zM1340 455h-133v-266h-535v-137
h668v403zM1340 -36h-402v-226h136v93h133v-189h-402v322h-133v-455h668v455zM1340 -732h-668v-455h668v455zM1207 -865v-189h-402v189h402zM1340 -1280h-668v-132h282l-282 -190v-132h668v132h-410l281 190h129v132z" />
    <glyph glyph-name=".notdef" horiz-adv-x="2012" 
d="M1650 2012v-4024h-1276v4024h1276zM1340 1742h-664v-132h262v-149h-266v-133h668v133h-266v149h266v132zM1074 1223h-402v-418h668v137h-266v281zM938 1086v-144h-133v144h133zM1340 696h-668v-133h266v-149h-266v-132h402v281h266v133zM1340 455h-133v-266h-535v-137
h668v403zM1340 -36h-402v-226h136v93h133v-189h-402v322h-133v-455h668v455zM1340 -732h-668v-455h668v455zM1207 -865v-189h-402v189h402zM1340 -1280h-668v-132h282l-282 -190v-132h668v132h-410l281 190h129v132z" />
    <glyph glyph-name="space" unicode=" " horiz-adv-x="600" 
 />
    <glyph glyph-name="uniE901" unicode="&#xe901;" horiz-adv-x="534" 
d="M526 126c5 -18 8 -34 8 -50c0 -83 -22 -154 -74 -210c-51 -55 -111 -86 -185 -90c4 -242 10 -385 8 -430c-2 -52 -6 -96 -16 -134c-10 -37 -23 -67 -39 -86c-16 -20 -34 -34 -49 -44c-18 -11 -36 -16 -52 -16c-45 0 -65 33 -65 100c0 24 14 52 43 86c21 25 34 29 34 12
c0 -5 -2 -12 -3 -23c-3 -10 -7 -18 -8 -27l-4 -27c-1 -9 0 -16 4 -21c5 -5 11 -9 20 -9c43 0 70 59 75 175c5 117 0 267 -17 446c-63 12 -115 43 -151 93c-37 51 -55 117 -55 197c0 17 2 34 7 55c5 22 12 43 21 64c7 23 16 47 27 70c11 24 22 46 33 68c10 20 21 41 32 61
c10 19 21 37 28 51c6 14 15 25 20 34s7 14 7 15c0 30 1 84 2 162c1 79 1 153 3 219c2 69 2 102 2 104c0 22 18 50 54 89c34 36 62 56 82 56c30 0 52 -16 68 -45s25 -64 23 -106c-1 -18 -2 -41 -9 -65s-13 -51 -22 -76c-9 -26 -19 -52 -29 -78c-11 -29 -23 -54 -33 -78
c-12 -22 -22 -42 -31 -62s-16 -33 -20 -44l-9 -17c0 -1 0 -13 2 -36c0 -24 2 -61 3 -113c1 -50 1 -104 2 -160c25 10 49 16 78 16c36 0 69 -5 97 -19c27 -13 48 -30 61 -50c13 -19 23 -38 27 -57zM239 789c4 -103 11 -154 15 -153c5 0 14 18 29 54c16 37 34 81 48 134
c14 52 22 94 19 127c-2 23 -7 43 -17 60c-10 18 -19 31 -29 38c-11 8 -19 13 -26 13c-5 0 -13 -11 -28 -30c-14 -21 -22 -35 -22 -46c0 -29 7 -95 11 -197zM106 -57c26 -37 57 -63 95 -80c-5 78 -11 160 -16 246c-18 -16 -37 -43 -58 -80c0 13 6 34 14 63s22 56 42 83
c-1 30 -3 80 -3 145v118c-30 -56 -56 -116 -78 -179s-34 -120 -34 -168c0 -62 13 -112 38 -148zM413 -111c31 31 47 68 47 119c0 38 -17 69 -51 98c-33 29 -75 38 -122 42c-11 1 -18 0 -22 0c1 -20 2 -119 7 -302h11c56 0 101 14 130 43z" />
    <glyph glyph-name="uniE903" unicode="&#xe903;" horiz-adv-x="405" 
d="M146 7c0 -2 0 -6 -1 -11s-4 -11 -7 -20c-4 -8 -9 -16 -14 -24c-5 -7 -13 -14 -22 -19s-20 -8 -32 -8c-15 0 -27 3 -37 9s-17 15 -21 26c-5 11 -8 22 -9 33c-2 11 -3 24 -3 39c0 51 23 97 68 138s96 61 155 61c31 0 59 -6 84 -17c24 -12 43 -28 57 -47
c13 -19 24 -40 31 -63s10 -46 10 -70c0 -27 -5 -61 -16 -102s-24 -83 -41 -126s-36 -88 -57 -135c-21 -46 -41 -89 -62 -130s-41 -77 -58 -110c-18 -32 -33 -58 -45 -77c-13 -19 -20 -28 -22 -28c-1 0 -1 0 -1 1c-1 1 -1 2 0 3l1 5v11c0 3 13 30 38 80c25 51 53 106 82 169
s57 130 82 202s37 129 37 170c0 56 -17 101 -52 135s-75 51 -118 51c-64 0 -106 -21 -127 -62c-14 -28 -15 -54 0 -77c9 -14 20 -21 35 -21h21c7 1 12 1 16 2l12 3l8 3c1 1 3 2 4 3s2 2 3 2c1 1 1 1 1 2v-1z" />
    <glyph glyph-name="uniE904" unicode="&#xe904;" horiz-adv-x="695" 
d="M668 123c2 -29 2 -51 -1 -67c-3 -14 -10 -28 -19 -34c-9 -9 -25 -15 -47 -15c-14 0 -32 3 -52 9c-22 6 -46 15 -66 28c-22 14 -40 31 -56 53c-15 20 -23 42 -26 65c-3 27 4 47 15 64c10 14 24 22 41 23c25 2 45 -3 70 -8c23 -4 42 -12 54 -20c13 -8 20 -11 20 -11l-7 263
c-5 177 -10 266 -5 266s11 -9 20 -28c8 -19 13 -33 13 -39c0 0 3 -20 6 -59s6 -84 11 -135c4 -55 9 -106 14 -162c4 -56 8 -103 11 -137s4 -53 4 -56zM525 215c-22 0 -39 -8 -50 -23c-10 -14 -15 -31 -14 -53c2 -28 14 -53 44 -76c28 -22 53 -33 73 -32c16 2 30 10 39 27
c11 19 12 37 12 56c0 22 -12 48 -38 70c-25 22 -49 31 -66 31zM365 173c2 0 2 -12 2 -40v-108c0 -45 0 -95 -2 -148c-2 -54 0 -107 -2 -161c-1 -55 0 -103 -1 -148c-2 -44 0 -82 -2 -109l-1 -43s-8 -8 -22 -19c-15 -9 -25 -14 -25 -14c-1 0 0 26 -1 81c-2 56 0 135 0 245
v229c-16 -22 -39 -40 -72 -54c-31 -13 -62 -21 -93 -21c-19 0 -31 2 -44 5c-14 3 -23 9 -31 14s-12 13 -17 17l-3 3c-2 -40 -2 -73 -2 -102c0 -2 -9 -7 -25 -17c-12 -11 -21 -16 -23 -16c-1 0 -1 6 -1 20v202c0 28 1 50 1 74v52l2 22s9 10 25 25l26 22c2 0 2 -6 2 -17v-58
c0 -25 1 -68 0 -92l26 22c2 0 8 0 16 8c7 8 17 14 29 20c9 8 25 13 39 19c16 8 30 11 44 11c48 0 82 -11 102 -31v62s11 8 27 23c15 17 24 22 26 22zM177 -81c29 0 56 4 81 16c26 11 39 25 39 42c0 16 -11 28 -31 45c-19 16 -44 22 -70 22c-30 0 -52 -6 -75 -17
c-19 -11 -31 -28 -31 -44c0 -15 6 -32 22 -43c12 -13 35 -21 65 -21zM679 -35c34 -35 17 -105 -76 -144c-62 -24 -107 -28 -140 -20c3 -74 17 -317 14 -328c-5 -17 -42 -34 -50 -34c-8 -2 -17 356 -17 412c-1 36 28 84 104 112c77 30 137 28 165 2zM572 -163
c57 23 89 65 57 101c-21 22 -66 25 -115 -3c-42 -22 -63 -61 -51 -82c16 -28 56 -39 109 -16z" />
    <glyph glyph-name="uniE905" unicode="&#xe905;" horiz-adv-x="369" 
d="M369 -443c-6 -5 -12 -10 -17 -15s-10 -8 -13 -11l-9 -8c-3 -2 -5 -4 -6 -5s-3 -2 -5 -3c-1 -1 -1 -1 -2 -1v91c-1 15 -1 30 -1 45v53c-1 20 -1 39 -1 58c-6 0 -49 1 -130 6s-123 7 -127 7v-217l-20 -19c-7 -5 -12 -10 -16 -14l-9 -6c-1 -1 -3 -2 -4 -3s-2 -1 -3 -1
l-2 514c-1 289 -3 433 -4 433l58 42v-247c9 0 50 -2 125 -5c74 -3 117 -5 130 -5v112c-1 11 -1 21 -1 30v25c-1 7 -1 14 -1 20v25l-1 3l59 42v-946zM313 181c-13 0 -58 3 -135 7l-120 6v-50c16 0 59 -1 128 -4l128 -6v24c-1 11 -1 18 -1 23zM58 -55c9 0 52 -2 128 -5
c75 -3 118 -5 129 -5c0 59 0 104 -1 135c-11 0 -56 2 -134 6l-122 6v-137zM58 -164c13 -1 55 -3 126 -6s115 -4 131 -4v44c-8 0 -52 2 -132 6l-125 6v-46z" />
    <glyph glyph-name="uniE915" unicode="&#xe915;" horiz-adv-x="428" 
d="M415 187c-2 0 -11 2 -27 4c-18 2 -35 6 -54 7c-18 1 -40 3 -65 4c-24 0 -47 -3 -69 -10c-21 -7 -42 -19 -61 -31c-17 -14 -33 -35 -44 -62c-11 -28 -18 -62 -18 -100c0 -41 11 -76 31 -106s46 -52 77 -66c30 -14 62 -21 95 -21c17 0 33 2 47 3c14 2 26 6 36 8
c10 4 17 7 26 12c8 3 16 7 20 9c4 4 7 8 11 9c5 3 6 4 7 4l1 -4c0 -18 -19 -40 -60 -65c-41 -24 -92 -36 -152 -36s-110 19 -152 60s-64 98 -64 172c0 71 27 133 86 188c57 53 119 79 184 79c15 0 29 0 45 -1c15 -1 28 -4 39 -5c11 -4 21 -6 31 -8c9 -2 15 -3 21 -6l9 -2
v-36z" />
    <glyph glyph-name="uniE918" unicode="&#xe918;" horiz-adv-x="370" 
d="M358 196c-1 0 -5 0 -11 2c-9 2 -16 3 -24 5c-9 2 -20 3 -32 5s-26 2 -38 2c0 -95 -1 -220 -3 -376c42 2 80 14 115 39c4 3 5 3 5 0c0 -8 -5 -19 -13 -30c-9 -12 -24 -22 -43 -34c-18 -12 -40 -21 -64 -26l-3 -206c-1 -69 -2 -122 -2 -157v-53c0 -34 -14 -64 -39 -93
c-27 -27 -51 -41 -73 -41c-8 0 -16 6 -25 14s-14 17 -15 25c-4 9 -5 16 -5 17c0 2 6 12 17 29s18 25 20 25v-6c0 -4 0 -9 2 -14c0 -5 1 -12 3 -17s3 -9 8 -13s11 -5 16 -5c13 0 22 5 27 13c5 10 6 27 6 51c0 5 0 25 2 64c0 39 2 93 2 161v198h-4c-52 0 -96 19 -132 57
c-37 39 -55 95 -55 165c0 61 20 115 59 162s84 78 137 90c2 238 0 359 -5 359c-2 0 -14 -9 -32 -28c-24 -22 -36 -30 -36 -27c0 5 22 40 63 110c40 68 62 102 66 102c5 0 5 -171 1 -513c17 -2 34 -4 51 -7s31 -6 41 -10l13 -5v-34zM193 -159c1 242 1 364 1 365
c-84 -16 -127 -79 -127 -187c0 -46 12 -85 36 -115c24 -31 54 -51 90 -63z" />
    <glyph glyph-name="uniF08A" unicode="&#xf08a;" horiz-adv-x="874" 
d="M790 -402c2 0 12 6 28 18c21 14 33 20 34 18c0 -7 -10 -25 -31 -57s-35 -48 -39 -48l-137 -2c-91 -2 -138 -3 -140 -3c-5 0 1 8 16 26c16 19 38 42 65 72c26 29 54 61 82 95c27 35 51 70 70 108c20 38 30 71 30 98c0 14 -3 27 -7 36c-4 10 -11 19 -18 24
c-7 7 -17 11 -27 16c-10 4 -21 5 -31 7c-10 1 -21 1 -31 1c-9 0 -19 0 -26 -1c-9 -2 -16 -2 -21 -3l-9 -2c-4 0 10 26 42 76c33 50 65 101 100 153c34 50 50 77 50 78c0 2 -42 3 -127 4c-86 2 -129 3 -130 2c-2 0 -21 -18 -59 -53c-39 -35 -60 -54 -62 -54l-26 5
c-17 2 -36 5 -54 7c-18 1 -40 2 -64 4c-24 0 -48 -3 -69 -10s-42 -18 -60 -31c-18 -14 -34 -35 -45 -62c-11 -28 -17 -61 -17 -99c0 -41 10 -76 31 -105c20 -29 45 -52 76 -66c29 -14 61 -21 95 -21c17 0 32 2 46 3l35 8c10 5 19 7 27 12c8 4 15 7 20 9c4 5 7 7 11 9
c4 3 5 4 7 4l1 -4c0 -18 -19 -41 -60 -65s-91 -36 -151 -36c-59 0 -110 19 -152 60s-63 98 -63 171c0 70 28 132 86 186c56 54 117 80 183 80c14 0 28 0 44 -1c15 -2 28 -4 39 -6c11 -3 21 -5 31 -7c8 -3 15 -4 21 -5l8 -3c2 0 21 22 56 67c35 43 52 66 53 66
c17 0 80 -2 189 -3c110 -3 164 -6 164 -7c0 -4 -7 -17 -21 -39l-51 -77l-61 -89c-21 -29 -38 -54 -50 -74c-13 -19 -18 -29 -17 -29l7 1h39c9 0 17 -1 27 -3c8 -1 17 -4 27 -7c9 -2 18 -7 25 -12c7 -6 14 -11 21 -18s11 -17 15 -28c4 -12 6 -24 6 -37c0 -24 -7 -52 -23 -84
c-15 -32 -32 -64 -51 -95c-22 -31 -41 -60 -62 -88l-51 -68c-14 -16 -21 -25 -19 -25c3 0 29 0 78 2c49 1 76 1 77 1z" />
    <glyph glyph-name="uniE910" unicode="&#xe910;" horiz-adv-x="532" 
d="M266 -266c-70 0 -137 28 -187 78s-78 117 -78 188c0 70 28 137 78 187s117 78 187 78c71 0 138 -28 188 -78s78 -117 78 -187c0 -71 -28 -138 -78 -188s-117 -78 -188 -78zM266 217c-58 0 -112 -23 -153 -64s-64 -95 -64 -153s23 -113 64 -154s95 -64 153 -64
s113 23 154 64s64 96 64 154s-23 112 -64 153s-96 64 -154 64zM266 62c35 0 63 -28 63 -62c0 -35 -28 -63 -63 -63c-34 0 -62 28 -62 63c0 34 28 62 62 62z" />
    <glyph glyph-name="uniE914" unicode="&#xe914;" horiz-adv-x="495" 
d="M266 -266c-71 0 -138 28 -188 78s-78 117 -78 188c0 70 28 137 78 187s117 78 188 78c89 0 172 -45 221 -120c3 -4 5 -9 5 -14c0 -8 -4 -15 -11 -19c-4 -3 -8 -4 -13 -4c-8 0 -16 4 -21 11c-40 61 -108 98 -181 98c-59 0 -113 -23 -154 -64s-64 -95 -64 -153
s23 -113 64 -154s95 -64 154 -64c37 0 74 10 107 28c31 18 58 44 77 75c4 7 12 11 20 11c4 0 9 -1 13 -4c7 -5 11 -13 11 -21c0 -4 -1 -8 -3 -12c-24 -37 -56 -69 -95 -91s-85 -34 -130 -34zM268 62c35 0 63 -28 63 -62c0 -35 -28 -63 -63 -63c-34 0 -62 28 -62 63
c0 34 28 62 62 62z" />
    <glyph glyph-name="uniF08B" unicode="&#xf08b;" horiz-adv-x="806" 
d="M729 -410c2 0 7 3 16 10c9 8 20 15 29 20c9 7 12 9 12 7c0 -7 -9 -27 -28 -59c-20 -32 -33 -48 -36 -48c-2 0 -45 -2 -127 -4c-85 -2 -128 -2 -129 -2c-4 0 1 9 16 27c14 20 34 43 59 74c25 30 50 62 75 97c25 34 47 71 66 109c18 37 27 71 27 100c0 14 -2 27 -7 36
c-5 11 -11 20 -18 25s-14 11 -23 14c-9 6 -20 8 -29 9c-9 2 -19 2 -28 2s-18 0 -26 -2c-7 -1 -12 -1 -17 -3h-9c-4 0 9 25 35 77c27 50 54 102 83 154s43 77 43 79c0 5 -79 7 -237 7c-1 0 -16 -18 -46 -54c-31 -37 -49 -55 -50 -55c-2 0 -6 0 -13 1l-25 6c-9 2 -22 3 -34 5
c-13 2 -27 2 -39 2c0 -100 -2 -233 -4 -398c45 2 84 15 122 41c3 4 5 4 5 0c0 -9 -5 -19 -14 -32c-9 -12 -25 -23 -45 -36c-20 -12 -43 -21 -68 -27l-4 -218c-1 -74 -1 -129 -1 -167v-55c0 -36 -15 -68 -42 -99c-28 -29 -53 -43 -77 -43c-9 0 -18 6 -27 14
c-9 9 -14 18 -16 27c-3 9 -5 16 -5 18s5 13 18 31c12 18 20 27 21 27v-8c0 -3 0 -9 2 -14c0 -5 2 -12 4 -18c2 -5 3 -11 9 -14c5 -4 10 -6 16 -6c14 0 23 6 28 15c6 11 8 28 8 54c0 5 0 26 1 68c0 41 0 98 2 170v209h-3c-56 0 -102 20 -140 61c-40 42 -59 101 -59 174
c0 65 21 122 62 172c42 50 90 83 146 95c1 253 0 380 -6 380c-2 0 -14 -9 -34 -29c-25 -23 -37 -32 -37 -28c0 5 21 43 66 116c43 72 66 108 70 108c5 0 5 -181 2 -543c17 -2 35 -4 53 -7c18 -4 33 -8 43 -11l15 -6c1 0 19 24 52 69l48 68h52c32 -2 70 -2 111 -4
s79 -2 113 -4c34 -1 50 -1 50 -3c0 -5 -16 -34 -48 -86c-33 -52 -63 -104 -94 -152c-30 -49 -44 -74 -43 -74h8c3 0 9 0 14 2h21c8 -2 15 -2 24 -4c9 -1 16 -5 25 -7s16 -5 23 -11c7 -5 14 -12 20 -19c5 -9 11 -18 14 -31c4 -11 6 -23 6 -36c0 -37 -17 -86 -49 -147
c-34 -60 -64 -112 -95 -155l-46 -63h73c45 2 68 2 70 2zM204 -167c2 257 2 386 2 387c-90 -18 -135 -84 -135 -198c0 -49 13 -90 38 -122c25 -33 57 -54 95 -67z" />
    <glyph glyph-name="uniF090" unicode="&#xf090;" 
d="M1404 236c1 0 1 -17 1 -50v-130c-1 -53 -1 -112 -2 -177c-1 -64 -1 -128 -2 -193l-3 -177c-1 -53 -1 -96 -1 -130l-1 -51c0 -2 -10 -9 -29 -22c-20 -13 -31 -19 -32 -19c-3 0 -4 216 -1 648c-22 -20 -47 -37 -75 -50s-55 -20 -82 -20c-29 0 -53 2 -74 6
c-21 5 -36 10 -45 16c-10 6 -17 12 -22 18s-9 11 -11 15c-2 5 -4 7 -6 7s-5 -2 -8 -7l-16 -16c-7 -6 -16 -12 -27 -19c-11 -6 -27 -11 -48 -16c-21 -4 -44 -6 -70 -6c-22 0 -42 2 -60 6s-32 9 -42 14c-10 6 -18 12 -25 17c-7 6 -13 11 -16 15l-14 16c-2 0 -5 -2 -8 -7
l-16 -16c-7 -6 -16 -12 -27 -19c-11 -6 -27 -11 -48 -16c-21 -4 -44 -6 -70 -6c-22 0 -42 2 -60 6s-32 9 -42 14c-10 6 -18 12 -25 17c-7 6 -13 11 -16 15c-3 3 -6 6 -7 6l-1 1c-1 0 -7 -4 -16 -12c-10 -8 -21 -17 -34 -26s-30 -18 -52 -26c-23 -8 -46 -12 -71 -12
c-62 0 -106 14 -133 41c-1 -9 -1 -19 -1 -28s0 -17 -1 -24v-39c0 -5 0 -9 -1 -13v-11c0 -1 -5 -5 -15 -12s-20 -13 -30 -19s-15 -9 -16 -9s-1 5 -2 15c0 10 0 23 -1 40v201c1 24 1 47 1 70c1 22 1 42 1 59v41c1 11 1 16 1 17c0 2 11 12 33 30s34 27 36 27v-66
c0 -24 -1 -74 -2 -149c21 29 50 55 87 76s71 31 103 31c25 0 48 -3 67 -8s33 -11 41 -18s15 -14 20 -19s11 -9 13 -9c1 0 5 2 11 6c5 4 13 9 23 15c9 6 21 12 34 18s29 11 50 15s43 6 66 6c31 0 58 -4 81 -11c23 -8 40 -17 50 -26l22 -21c5 4 13 9 23 15c9 6 21 12 34 18
s29 11 50 15s43 6 66 6c31 0 58 -4 81 -11c23 -8 40 -17 50 -26l24 -25c7 -8 11 -12 13 -12c3 0 9 4 16 11l24 24c9 9 23 17 44 24s45 10 73 10c41 0 74 -6 99 -17v58c0 4 0 7 1 10v3c0 1 6 6 17 16l33 28c11 9 17 13 18 13zM670 -5c-5 18 -38 49 -60 58s-42 14 -60 14
c-37 0 -68 -4 -93 -13s-37 -19 -37 -30c0 -18 18 -36 53 -53s67 -25 98 -25c41 0 85 36 99 49zM897 -58c41 0 70 3 88 9s27 17 27 34c0 9 -7 19 -21 32c-15 12 -33 23 -55 32s-42 14 -60 14c-37 0 -68 -4 -93 -13s-37 -19 -37 -30c0 -18 18 -36 53 -53s67 -25 98 -25z
M1196 -70c35 0 66 6 92 18c25 12 38 27 38 46c0 15 -13 30 -38 45c-26 14 -55 21 -87 21c-24 0 -45 -3 -63 -10s-31 -16 -38 -25c-8 -9 -12 -19 -12 -29c0 -15 11 -30 34 -45c23 -14 47 -21 74 -21zM321 -65l35 43c0 9 -5 19 -16 32c-11 12 -26 23 -47 34
c-21 10 -44 15 -67 15c-42 0 -76 -9 -101 -28s-38 -37 -38 -52c0 -10 6 -20 17 -29s27 -17 48 -23c20 -5 42 -8 65 -8c45 0 80 5 104 16z" />
    <glyph glyph-name="uniF091" unicode="&#xf091;" 
d="M1405 -190c0 -33 0 -50 -1 -50s-7 4 -18 13l-33 28c-11 10 -17 15 -17 16v3c-1 3 -1 6 -1 10v58c-25 -11 -58 -17 -99 -17c-28 0 -52 3 -73 10s-35 15 -44 24l-24 24c-7 7 -13 11 -16 11c-2 0 -6 -4 -13 -12l-24 -25c-10 -9 -27 -18 -50 -26c-23 -7 -50 -11 -81 -11
c-23 0 -45 2 -66 6s-37 9 -50 15s-25 12 -34 18c-10 6 -18 11 -23 15l-22 -21c-10 -9 -27 -18 -50 -26c-23 -7 -50 -11 -81 -11c-23 0 -45 2 -66 6s-37 9 -50 15s-25 12 -34 18c-10 6 -18 11 -23 15c-6 4 -10 6 -11 6c-2 0 -8 -4 -13 -9s-12 -12 -20 -19s-22 -13 -41 -18
s-42 -8 -67 -8c-32 0 -66 10 -103 31s-66 47 -87 76c1 -75 2 -125 2 -149v-66c-2 0 -14 9 -36 27s-33 28 -33 30c0 1 0 6 -1 17v41c0 17 0 37 -1 59c0 23 0 46 -1 70v201c1 17 1 30 1 40c1 10 1 15 2 15s6 -3 16 -9s20 -12 30 -19s15 -11 15 -12v-11c1 -4 1 -8 1 -13v-39
c1 -7 1 -15 1 -24s0 -19 1 -28c27 27 71 41 133 41c25 0 48 -4 71 -12c22 -8 39 -17 52 -26s24 -18 34 -26c9 -8 15 -12 16 -12l1 1c1 0 4 3 7 6c3 4 9 9 16 15c7 5 15 11 25 17c10 5 24 10 42 14s38 6 60 6c26 0 49 -2 70 -6c21 -5 37 -10 48 -16c11 -7 20 -13 27 -19
l16 -16c3 -5 6 -7 8 -7l14 16c3 4 9 9 16 15c7 5 15 11 25 17c10 5 24 10 42 14s38 6 60 6c26 0 49 -2 70 -6c21 -5 37 -10 48 -16c11 -7 20 -13 27 -19l16 -16c3 -5 6 -7 8 -7s4 2 6 7c2 4 6 9 11 15s12 12 22 18c9 6 24 11 45 16c21 4 45 6 74 6c27 0 54 -7 82 -20
s53 -30 75 -50c-3 432 -2 648 1 648c1 0 12 -6 32 -19c19 -13 29 -20 29 -22l1 -51c0 -34 0 -77 1 -130l3 -177c1 -65 1 -129 2 -193c1 -65 1 -124 2 -177v-130zM356 18l-35 43c-24 11 -59 16 -104 16c-23 0 -45 -3 -65 -8c-21 -6 -37 -14 -48 -23s-17 -19 -17 -29
c0 -15 13 -33 38 -52s59 -28 101 -28c23 0 46 5 67 15c21 11 36 22 47 34c11 13 16 23 16 32zM1288 48c-26 12 -57 18 -92 18c-27 0 -51 -7 -74 -21c-23 -15 -34 -30 -34 -45c0 -10 4 -20 12 -29c7 -9 20 -18 38 -25s39 -10 63 -10c32 0 61 7 87 21c25 15 38 30 38 45
c0 19 -13 34 -38 46zM985 45c-18 6 -47 9 -88 9c-31 0 -63 -8 -98 -25s-53 -35 -53 -53c0 -11 12 -21 37 -30s56 -13 93 -13c18 0 38 5 60 14s40 20 55 32c14 13 21 23 21 32c0 17 -9 28 -27 34zM610 -57c22 9 55 40 60 58c-14 13 -58 49 -99 49c-31 0 -63 -8 -98 -25
s-53 -35 -53 -53c0 -11 12 -21 37 -30s56 -13 93 -13c18 0 38 5 60 14z" />
    <glyph glyph-name="uniF092" unicode="&#xf092;" horiz-adv-x="1086" 
d="M1079 245c1 0 1 -17 1 -50v-130c-1 -53 -1 -112 -2 -177c-1 -64 -1 -128 -2 -193l-3 -177c-1 -53 -1 -96 -1 -130l-1 -51c0 -2 -10 -9 -29 -22c-20 -13 -31 -19 -32 -19c-3 0 -4 216 -1 648c-22 -20 -47 -37 -75 -50s-55 -20 -82 -20c-29 0 -53 2 -74 6
c-21 5 -36 10 -45 16c-10 6 -17 12 -22 18s-9 11 -11 15c-2 5 -4 7 -6 7s-5 -2 -8 -7l-16 -16c-7 -6 -16 -12 -27 -19c-11 -6 -27 -11 -48 -16c-21 -4 -44 -6 -70 -6c-22 0 -42 2 -60 6s-32 9 -42 14c-10 6 -18 12 -25 17c-7 6 -13 11 -16 15s-5 6 -6 6s-7 -4 -16 -12
c-10 -8 -21 -17 -34 -26s-30 -18 -52 -26c-23 -8 -46 -12 -71 -12c-62 0 -106 14 -133 41c-1 -9 -1 -19 -1 -28s0 -17 -1 -24v-39c0 -5 0 -9 -1 -13v-11c0 -1 -5 -5 -15 -12s-20 -13 -30 -19s-15 -9 -16 -9s-1 5 -2 15c0 10 0 23 -1 40v201c1 24 1 47 1 70c1 22 1 42 1 59
v41c1 11 1 16 1 17c0 2 11 12 33 30s34 27 36 27v-66c0 -24 -1 -74 -2 -149c21 29 50 55 87 76s71 31 103 31c25 0 48 -3 67 -8s33 -11 41 -18s15 -14 20 -19s9 -8 11 -8c1 0 5 2 11 6c5 4 13 9 23 15c9 6 21 12 34 18s29 11 50 15s43 6 66 6c31 0 58 -4 81 -11
c23 -8 40 -17 50 -26l24 -25c7 -8 11 -12 13 -12c3 0 9 4 16 11l24 24c9 9 23 17 44 24s45 10 73 10c41 0 74 -6 99 -17v58c0 4 0 7 1 10v3c0 1 6 6 17 16l33 28c11 9 17 13 18 13zM572 -49c41 0 70 3 88 9s27 17 27 34c0 9 -7 19 -21 32c-15 12 -33 23 -55 32
s-42 14 -60 14c-37 0 -68 -4 -93 -13s-37 -19 -37 -30c0 -18 18 -36 53 -53s67 -25 98 -25zM871 -61c35 0 66 6 92 18c25 12 38 27 38 46c0 15 -13 30 -38 45c-26 14 -55 21 -87 21c-24 0 -45 -3 -63 -10s-31 -16 -38 -25c-8 -9 -12 -19 -12 -29c0 -15 11 -30 34 -45
c23 -14 47 -21 74 -21zM220 -77c45 0 80 5 104 16c23 11 35 26 35 43c0 9 -5 19 -16 32c-11 12 -26 23 -47 34c-21 10 -44 15 -67 15c-42 0 -76 -9 -101 -28s-38 -37 -38 -52c0 -10 6 -20 17 -29s27 -17 48 -23c20 -5 42 -8 65 -8z" />
    <glyph glyph-name="uniF093" unicode="&#xf093;" horiz-adv-x="1077" 
d="M1077 -194c0 -33 0 -50 -1 -50s-7 4 -18 13l-33 28c-11 10 -17 15 -17 16v3c-1 3 -1 6 -1 10v58c-25 -11 -58 -17 -99 -17c-28 0 -52 3 -73 10s-35 15 -44 24l-24 24c-7 7 -13 11 -16 11c-2 0 -6 -4 -13 -12l-24 -25c-10 -9 -27 -18 -50 -26c-23 -7 -50 -11 -81 -11
c-23 0 -45 2 -66 6s-37 9 -50 15s-25 12 -34 18c-10 6 -18 11 -23 15c-6 4 -10 6 -11 6c-2 0 -6 -3 -11 -8s-12 -12 -20 -19s-22 -13 -41 -18s-42 -8 -67 -8c-32 0 -66 10 -103 31s-66 47 -87 76c1 -75 2 -125 2 -149v-66c-2 0 -14 9 -36 27s-33 28 -33 30c0 1 0 6 -1 17v41
c0 17 0 37 -1 59c0 23 0 46 -1 70v201c1 17 1 30 1 40c1 10 1 15 2 15s6 -3 16 -9s20 -12 30 -19s15 -11 15 -12v-11c1 -4 1 -8 1 -13v-39c1 -7 1 -15 1 -24s0 -19 1 -28c27 27 71 41 133 41c25 0 48 -4 71 -12c22 -8 39 -17 52 -26s24 -18 34 -26c9 -8 15 -12 16 -12
s3 2 6 6s9 9 16 15c7 5 15 11 25 17c10 5 24 10 42 14s38 6 60 6c26 0 49 -2 70 -6c21 -5 37 -10 48 -16c11 -7 20 -13 27 -19l16 -16c3 -5 6 -7 8 -7s4 2 6 7c2 4 6 9 11 15s12 12 22 18c9 6 24 11 45 16c21 4 45 6 74 6c27 0 54 -7 82 -20s53 -30 75 -50
c-3 432 -2 648 1 648c1 0 12 -6 32 -19c19 -13 29 -20 29 -22l1 -51c0 -34 0 -77 1 -130l3 -177c1 -65 1 -129 2 -193c1 -65 1 -124 2 -177v-130zM321 62c-24 11 -59 16 -104 16c-23 0 -45 -3 -65 -8c-21 -6 -37 -14 -48 -23s-17 -19 -17 -29c0 -15 13 -33 38 -52
s59 -28 101 -28c23 0 46 5 67 15c21 11 36 22 47 34c11 13 16 23 16 32c0 17 -12 32 -35 43zM960 44c-26 12 -57 18 -92 18c-27 0 -51 -7 -74 -21c-23 -15 -34 -30 -34 -45c0 -10 4 -20 12 -29c7 -9 20 -18 38 -25s39 -10 63 -10c32 0 61 7 87 21c25 15 38 30 38 45
c0 19 -13 34 -38 46zM657 41c-18 6 -47 9 -88 9c-31 0 -63 -8 -98 -25s-53 -35 -53 -53c0 -11 12 -21 37 -30s56 -13 93 -13c18 0 38 5 60 14s40 20 55 32c14 13 21 23 21 32c0 17 -9 28 -27 34z" />
    <glyph glyph-name="uniE95C" unicode="&#xe95c;" horiz-adv-x="674" 
d="M674 162v-123c-1 -51 -1 -106 -1 -167c-1 -61 -1 -122 -2 -183s-1 -117 -2 -168c-1 -50 -1 -91 -1 -124l-1 -48c0 -1 -9 -8 -26 -20s-27 -18 -28 -18s-1 31 -1 93c-1 62 -1 154 0 277v260c-19 -25 -46 -45 -81 -61c-35 -15 -70 -23 -107 -23c-19 0 -35 2 -49 5
c-15 4 -26 9 -34 15c-9 6 -16 13 -21 20c-6 7 -10 14 -12 21c-3 7 -5 14 -6 20s-2 11 -2 14c-1 4 -1 6 -2 6s-3 -3 -8 -10c-5 -6 -12 -14 -21 -23s-20 -18 -31 -27c-12 -9 -26 -16 -43 -23c-17 -6 -34 -9 -52 -9c-38 0 -67 11 -86 34c-1 -44 -2 -83 -2 -116
c0 -1 -9 -8 -26 -20c-17 -11 -27 -17 -28 -17s-1 8 -1 23v230c1 29 1 56 1 81v61l1 24c0 1 10 11 29 28s29 26 30 26s1 -7 1 -22v-63c0 -27 -1 -54 -2 -83c39 49 90 74 154 74c22 0 42 -2 59 -7s31 -11 40 -18s17 -14 23 -21c5 -7 10 -13 13 -18s4 -7 5 -7s7 3 16 10
s20 14 33 22c12 8 27 16 45 23c17 7 34 10 49 10c55 0 93 -11 116 -34c1 28 1 51 1 69c0 1 10 11 29 28s29 26 30 26s1 -16 1 -47zM251 -51c27 16 41 33 41 51c0 19 -12 35 -35 46c-23 12 -52 18 -87 18c-25 0 -46 -6 -63 -19c-18 -12 -27 -25 -27 -39c0 -24 9 -43 29 -58
c19 -15 38 -22 58 -22c29 0 57 8 84 23zM551 -63c29 13 43 29 43 48c0 17 -11 34 -33 51s-49 26 -80 26c-33 0 -61 -7 -84 -21c-23 -13 -35 -30 -35 -49c0 -18 8 -35 23 -50s41 -23 76 -23c31 0 61 6 90 18z" />
    <glyph glyph-name="uniF094" unicode="&#xf094;" horiz-adv-x="674" 
d="M674 -163c0 -31 0 -47 -1 -47s-11 9 -30 26s-29 27 -29 28c0 18 0 41 -1 69c-23 -23 -61 -34 -116 -34c-15 0 -32 3 -49 10c-18 7 -33 15 -45 23c-13 8 -24 15 -33 22s-15 10 -16 10s-2 -2 -5 -7s-8 -11 -13 -18c-6 -7 -14 -14 -23 -21s-23 -13 -40 -18s-37 -7 -59 -7
c-64 0 -115 25 -154 74c1 -29 2 -56 2 -83v-63c0 -15 0 -22 -1 -22s-11 9 -30 26s-29 27 -29 28l-1 24v61c0 25 0 52 -1 81v230c0 15 0 23 1 23s11 -6 28 -17c17 -12 26 -19 26 -20c0 -33 1 -72 2 -116c19 23 48 34 86 34c18 0 35 -3 52 -9c17 -7 31 -14 43 -23
c11 -9 22 -18 31 -27s16 -17 21 -23c5 -7 7 -10 8 -10s1 2 2 6c0 3 1 8 2 14s3 13 6 20c2 7 6 14 12 21c5 7 12 14 21 20c8 6 19 11 34 15c14 3 30 5 49 5c37 0 72 -8 107 -23c35 -16 62 -36 81 -61v260c-1 123 -1 215 0 277c0 62 0 93 1 93s11 -6 28 -18s26 -19 26 -20
l1 -48c0 -33 0 -74 1 -124c1 -51 1 -107 2 -168s1 -122 2 -183c0 -61 0 -116 1 -167v-123zM551 62c-29 12 -59 18 -90 18c-35 0 -61 -8 -76 -23s-23 -32 -23 -50c0 -19 12 -36 35 -49c23 -14 51 -21 84 -21c31 0 58 9 80 26s33 34 33 51c0 19 -14 35 -43 48zM251 50
c-27 15 -55 23 -84 23c-20 0 -39 -7 -58 -22c-20 -15 -29 -34 -29 -58c0 -14 9 -27 27 -39c17 -13 38 -19 63 -19c35 0 64 6 87 18c23 11 35 27 35 46c0 18 -14 35 -41 51z" />
    <glyph glyph-name="uniE933" unicode="&#xe933;" horiz-adv-x="768" 
d="M767 260c4 0 -8 -479 -8 -482c0 -4 -56 -43 -59 -43s-2 129 -2 251c-38 -69 -128 -125 -186 -125c-97 0 -143 66 -150 66c-10 0 -62 -88 -167 -88c-68 0 -107 24 -131 55c-2 -68 -2 -116 -2 -116c0 -4 -57 -43 -60 -43c-4 0 1 459 1 466c0 3 62 59 66 59
c2 0 2 -81 -1 -177c29 40 75 73 133 73c144 0 166 -81 176 -81c14 0 52 77 166 77c85 0 134 -35 156 -67l2 116c0 3 62 59 66 59zM209 -94c73 0 125 31 125 68c0 48 -103 122 -154 122c-63 0 -103 -31 -103 -88c0 -51 51 -102 132 -102zM518 -65c67 0 127 28 127 61
c0 27 -50 90 -117 90c-88 0 -116 -29 -116 -64c0 -31 54 -87 106 -87z" />
    <glyph glyph-name="uniE95D" unicode="&#xe95d;" horiz-adv-x="414" 
d="M413 211c1 0 1 -16 1 -47v-123c-1 -51 -1 -106 -1 -167c-1 -61 -1 -122 -2 -183s-1 -117 -2 -168c-1 -50 -1 -91 -1 -124l-1 -48c0 -1 -9 -8 -26 -20s-27 -18 -28 -18s-1 31 -1 93c-1 62 -1 154 0 277v260c-19 -25 -46 -45 -81 -61c-35 -15 -70 -23 -107 -23
c-19 0 -35 2 -49 5c-15 4 -26 9 -34 15c-9 6 -16 13 -21 20l-3 3c-1 -44 -2 -83 -2 -116c0 -1 -9 -8 -26 -20c-17 -11 -27 -17 -28 -17s-1 8 -1 23v230c0 29 1 56 1 81v61l1 24c0 1 10 11 29 28s29 26 30 26s1 -7 1 -22v-63c0 -27 1 -77 0 -106l32 26c1 0 7 3 16 10
s20 14 33 22c12 8 27 16 45 23c17 7 34 10 49 10c55 0 93 -11 116 -34c1 28 1 51 1 69c0 1 10 11 29 28s29 26 30 26zM201 -79c31 0 61 6 90 18c29 13 43 29 43 48c0 17 -11 34 -33 51s-49 26 -80 26c-33 0 -61 -7 -84 -21c-23 -13 -35 -30 -35 -49c0 -18 8 -35 23 -50
s41 -23 76 -23z" />
    <glyph glyph-name="uniF096" unicode="&#xf096;" horiz-adv-x="411" 
d="M410 816c4 0 -8 -1017 -8 -1021s-60 -45 -63 -45c-1 0 -2 59 -2 148c-29 -41 -77 -75 -156 -75c-59 0 -92 20 -115 46c-1 -44 -1 -72 -1 -73c0 -4 -60 -45 -63 -45c-5 0 0 493 0 498s68 64 71 64c2 0 1 -118 -2 -241c34 40 87 69 158 69c45 0 82 -16 108 -40
c0 287 3 647 3 650c0 5 67 65 70 65zM208 -112c73 0 110 11 129 36v86c-22 31 -67 63 -129 63c-92 0 -122 -36 -122 -75c0 -30 43 -110 122 -110z" />
    <glyph glyph-name="uniE937" unicode="&#xe937;" horiz-adv-x="395" 
d="M394 247c1 -3 1 -19 1 -49c0 -31 0 -71 -1 -121l-3 -144c-1 -45 -2 -86 -3 -121l-1 -52c0 -1 -9 -9 -28 -22s-30 -20 -31 -20c-2 0 -3 66 -3 197c-35 -39 -82 -58 -141 -58c-53 0 -93 13 -120 40v-68c-1 -22 -1 -39 -1 -51l-1 -18c0 -2 -9 -10 -28 -23s-30 -19 -32 -19
c-1 0 -1 8 -1 25c-1 17 -1 40 -1 67s0 57 1 90v100c0 33 0 64 1 91c0 27 0 50 1 68v28c0 2 11 13 32 32s33 28 34 28s1 -6 1 -18v-63c-1 -30 -1 -56 -1 -79c18 16 40 29 65 38s48 14 67 14c54 0 96 -12 126 -35c1 33 1 60 1 83c0 2 11 13 32 32s33 28 34 28zM199 -80
c63 0 106 8 127 23v78c-15 13 -35 25 -62 34s-53 13 -78 13c-56 0 -95 -7 -118 -22l-2 -69c14 -16 33 -30 56 -41s48 -16 77 -16z" />
    <glyph glyph-name="uniE934" unicode="&#xe934;" horiz-adv-x="375" 
d="M372 244c1 -3 1 -18 1 -47c-1 -29 -1 -66 -2 -113s-1 -93 -2 -136l-3 -114l-1 -49c0 -2 -9 -9 -27 -22c-18 -12 -28 -18 -30 -18c-1 0 -1 57 -1 172c-35 -35 -78 -53 -131 -53c-58 0 -96 20 -115 60c-2 -77 -3 -123 -3 -139c0 -2 -9 -9 -27 -22c-18 -12 -28 -18 -29 -18
s-1 8 -2 24v242c1 31 1 60 1 86c1 25 1 47 1 64v26c0 1 10 11 31 30c20 18 31 27 32 27s1 -19 1 -58l-3 -135c16 21 38 40 65 56s52 24 73 24c41 0 76 -12 107 -36v29c0 10 0 19 1 26v37c0 1 10 11 31 30c20 18 31 27 32 27z" />
    <glyph glyph-name="uniE939" unicode="&#xe939;" horiz-adv-x="416" 
d="M201 139c23 0 47 -2 71 -7c23 -5 46 -12 69 -21c22 -10 40 -24 54 -41s21 -38 21 -61c0 -29 -12 -55 -37 -79c-25 -23 -55 -41 -90 -53s-69 -18 -103 -18c-54 0 -98 12 -133 36s-53 59 -53 104c0 37 22 69 65 98c43 28 88 42 136 42zM221 -108c32 0 60 8 83 25
s34 42 34 77c0 25 -19 50 -57 75c-39 25 -71 37 -97 37c-9 0 -18 -1 -28 -3c-10 -3 -21 -7 -33 -14s-22 -17 -29 -32c-8 -15 -12 -32 -12 -53c0 -27 17 -52 51 -76s63 -36 88 -36z" />
    <glyph glyph-name="uniE938" unicode="&#xe938;" horiz-adv-x="420" 
d="M204 141c24 0 48 -2 72 -7c23 -5 46 -12 69 -21c22 -10 40 -24 54 -41c14 -18 21 -38 21 -61c0 -29 -12 -55 -37 -79s-55 -42 -90 -55c-35 -12 -70 -18 -104 -18c-54 0 -99 12 -134 37c-36 25 -54 59 -54 104c0 25 11 49 32 71s47 39 78 52c31 12 62 18 93 18z" />
    <glyph glyph-name="uniE959" unicode="&#xe959;" horiz-adv-x="387" 
d="M365 117c46 -52 25 -163 -105 -224c-83 -37 -147 -44 -191 -31c6 -115 25 -494 20 -513c-7 -24 -56 -50 -68 -53c-11 -2 -21 558 -21 645c-4 55 36 130 140 173c107 46 189 43 225 3z" />
    <glyph glyph-name="uniE954" unicode="&#xe954;" horiz-adv-x="344" 
d="M210 -146c-36 0 -65 14 -87 25c-23 10 -43 22 -59 34c-17 14 -30 28 -38 42c-9 16 -15 30 -19 42s-6 23 -7 34c-1 27 4 47 17 62c12 14 35 22 70 24c12 1 24 0 36 0c12 -1 23 -3 33 -5l27 -8c9 -2 18 -6 25 -8c7 -4 13 -8 19 -10c7 -4 12 -7 17 -9l11 -8c3 -3 6 -3 7 -4
s2 -2 2 -1l-39 634c3 0 17 -9 39 -29s34 -31 34 -35v-7c5 -53 10 -107 14 -163c5 -57 11 -139 19 -246c8 -109 13 -197 13 -265c0 -127 -21 -99 -134 -99z" />
    <glyph glyph-name="uniF963" unicode="&#xf963;" horiz-adv-x="588" 
d="M464 -110c-75 -40 -134 -38 -172 -22c0 -62 2 -261 3 -438c63 69 111 120 116 122c17 2 65 2 65 -3s-82 -95 -179 -197c2 -124 2 -222 2 -231c0 -39 -38 -69 -62 -70c-14 0 -67 55 -116 117c-67 -69 -117 -121 -119 -121c-3 0 -3 47 2 52c5 3 42 46 92 103
c-38 50 -68 99 -68 119c0 35 68 104 97 116c24 8 55 7 43 0c-16 -7 -62 -50 -62 -64c0 -12 29 -55 58 -93c19 22 40 46 59 69c4 207 10 600 12 605v2c2 48 38 105 95 139c78 47 195 69 231 24c52 -63 33 -162 -97 -229zM221 -775c0 1 0 20 2 50c-10 -11 -19 -21 -29 -31
c15 -18 27 -28 27 -19z" />
    <glyph glyph-name="uniF962" unicode="&#xf962;" horiz-adv-x="547" 
d="M486 915c16 2 61 2 61 -3c0 -3 -45 -52 -107 -118c51 -99 104 -223 104 -243c0 -13 -29 -64 -86 -64c-25 0 23 15 23 42c0 14 -69 150 -105 197c-5 -7 -10 -12 -17 -18c1 -250 4 -634 4 -634c0 -102 -151 -204 -254 -204c-83 0 -109 35 -109 97c0 82 111 186 289 186
c1 0 3 271 3 484c-97 -102 -187 -192 -189 -192s-2 42 2 47c7 7 96 110 187 212v181c0 13 61 32 66 32c9 0 31 -32 56 -76c39 44 67 74 72 74z" />
    <glyph glyph-name="uniE9F2" unicode="&#xe9f2;" horiz-adv-x="164" 
d="M0 463c0 2 26 11 79 26c46 16 72 25 79 25c6 0 6 -163 6 -488c0 -2 -6 -5 -19 -11l-53 -18l-53 -17c-19 -7 -26 -9 -32 -9c-7 0 -7 164 -7 492z" />
    <glyph glyph-name="uniE9F1" unicode="&#xe9f1;" horiz-adv-x="117" 
d="M105 812l3 -405c2 -269 2 -403 2 -403c0 -1 -17 -6 -49 -21s-49 -21 -51 -21s-1 137 -5 411s-6 411 -4 412c2 0 38 9 104 27z" />
    <glyph glyph-name="uniE9F3" unicode="&#xe9f3;" horiz-adv-x="75" 
d="M0 226c0 1 12 5 36 12c21 7 33 11 36 11s3 -74 3 -223c0 -1 -3 -2 -9 -5l-48 -16c-9 -3 -12 -4 -15 -4s-3 75 -3 225z" />
    <glyph glyph-name="uniE9F4" unicode="&#xe9f4;" horiz-adv-x="78" 
d="M0 -24c0 1 12 5 36 13c24 7 36 11 39 11s3 -33 3 -100c0 -1 -12 -5 -36 -13s-36 -12 -39 -12s-3 34 -3 101z" />
    <glyph glyph-name="uniE9F5" unicode="&#xe9f5;" horiz-adv-x="98" 
d="M0 95c0 1 15 6 48 16c30 9 45 14 48 14s3 -31 0 -94c0 -1 -15 -7 -45 -17s-48 -15 -51 -15v96z" />
    <glyph glyph-name="uniE9F6" unicode="&#xe9f6;" horiz-adv-x="137" 
d="M137 168c0 -1 -7 -14 -20 -39l-80 -44v-45c0 -1 -6 -8 -17 -21s-18 -19 -19 -19s-1 41 -1 123c0 1 6 7 17 19s17 18 18 18s1 -13 1 -40l63 31c25 12 38 18 38 17z" />
    <glyph glyph-name="uniE9F7" unicode="&#xe9f7;" horiz-adv-x="151" 
d="M149 158c1 0 2 -40 2 -119c0 -1 -6 -8 -18 -20c-13 -13 -20 -19 -21 -19s-1 29 -1 87c-19 9 -48 24 -89 44l-22 37c0 1 14 -4 41 -15c27 -12 51 -22 70 -31c1 1 4 5 11 11c6 6 12 12 18 17c5 5 8 8 9 8z" />
    <glyph glyph-name="uniE9F8" unicode="&#xe9f8;" horiz-adv-x="274" 
d="M271 136c0 0 3 0 3 -216c0 -5 -66 -72 -71 -72c-1 0 -1 33 -2 73c0 0 -35 18 -96 51c-40 66 -40 68 -40 68c0 2 91 -36 136 -56v23s-50 25 -161 80c-40 66 -40 68 -40 68c0 3 144 -59 202 -85c5 8 66 66 69 66z" />
    <glyph glyph-name="uniF0A1" unicode="&#xf0a1;" horiz-adv-x="808" 
d="M404 178v324h-404v-324h404zM2 181h31v-800h-31v800zM808 -144v322h-404v-322h404zM141 -306v-102h61v15h-46v87h-15zM229 -313c0 7 0 7 -6 7c-8 0 -8 0 -8 -7c0 -6 0 -6 8 -6c6 0 6 0 6 6zM423 -313h-13v-21h-12v-6h12v-40c0 -13 0 -21 7 -21c0 -7 6 -7 14 -7h13v15
c-6 0 -6 -8 -13 -8c-8 0 -8 8 -8 21v40h21v6h-21v21zM215 -408h14v74h-14v-74zM316 -334h-13v-12c-6 6 -13 12 -27 12c-13 0 -34 -12 -34 -40c0 -19 15 -34 34 -34c14 0 21 7 21 15v-8c0 -19 -7 -25 -21 -25c-7 0 -19 0 -19 6l-9 -15c9 0 21 -6 28 -6c6 0 21 6 27 15
c6 6 6 12 6 33v40c0 7 0 13 7 19zM377 -408h12c-6 7 -6 15 -6 22v27c0 13 0 25 -25 25c-9 0 -15 0 -21 -6v-6c6 0 12 6 21 6c12 0 12 -13 12 -19c-27 0 -40 -9 -40 -27c0 -15 7 -22 19 -22c15 0 21 7 28 7v-7zM518 -386v52h-13v-46v-6c0 -7 -6 -15 -21 -15
c-6 0 -13 15 -13 27v40h-14v-40c0 -27 14 -34 27 -34c15 0 21 7 21 15l6 -15h7v22zM545 -353v-55h13v40v9c0 6 8 13 15 13h6v12h-6c-7 0 -15 -6 -22 -12v12h-12c6 -6 6 -12 6 -19zM600 -374h53v6c0 15 -7 34 -34 34c-19 0 -34 -12 -34 -40c0 -19 15 -34 34 -34
c15 0 21 0 27 7v8c-6 0 -12 -8 -21 -8c-12 0 -25 8 -25 27zM297 -359v-15v-6c0 -13 -7 -13 -15 -13c-19 0 -25 7 -25 25c0 15 12 28 25 28c8 0 15 -6 15 -13v-6zM640 -359h-40c0 6 6 19 19 19c15 0 21 -13 21 -19zM377 -368v-12l-7 -6c0 -7 -6 -15 -12 -15
c-9 0 -15 8 -15 15c0 12 15 18 34 18z" />
    <glyph glyph-name="uniE9E5" unicode="&#xe9e5;" horiz-adv-x="168" 
d="M160 184c5 0 8 -3 8 -8v-502c0 -8 -4 -12 -12 -12h-13c-8 0 -12 4 -12 12v149c0 7 -6 11 -17 11c-19 0 -52 -10 -99 -30l-3 -1l-2 -1h-2c-5 0 -8 3 -8 9v515c0 8 4 12 12 12h13c8 0 12 -4 12 -12v-167c0 -3 3 -5 10 -5c8 0 20 2 35 6s27 8 38 12l17 5l1 1h3l15 5
c1 1 2 1 4 1zM43 -92c1 0 2 0 3 -1h3c17 0 37 6 61 19l-15 15c-1 1 -2 3 -2 6s1 5 2 6l11 11c1 1 3 2 5 2c1 0 3 -1 6 -2l14 -14v106l-14 -14c-1 -1 -3 -2 -6 -2s-4 1 -5 2l-11 11c-1 1 -2 2 -2 5s1 5 2 6l32 32h-5c-17 0 -36 -6 -59 -18l13 -14c1 -3 2 -5 2 -6
c0 -2 -1 -4 -2 -5l-11 -11c-1 -1 -2 -1 -4 -1l-7 1c-5 5 -9 8 -12 11s-5 4 -5 3v-108l17 16c1 1 3 2 5 2c1 0 3 -1 6 -2l11 -11c1 -3 2 -5 2 -6s-1 -3 -2 -6z" />
    <glyph glyph-name="uniE262" unicode="&#xe262;" horiz-adv-x="315" 
d="M242 -13c14 7 26 13 38 20c11 6 19 10 25 12c7 2 10 3 10 1c0 -3 -2 -13 -5 -31c-5 -16 -8 -24 -9 -24l-13 -8c-5 -2 -9 -5 -13 -9c-6 -2 -10 -5 -13 -6c-2 -1 -5 -2 -10 -5c-5 -2 -8 -5 -10 -6c-1 -51 -1 -97 -1 -136c0 -2 -7 -10 -24 -23c-16 -13 -24 -20 -25 -20
c-2 0 -3 51 -3 152c-18 -11 -41 -24 -66 -36v-60c-1 -3 -1 -7 -1 -10v-3c0 -2 -7 -11 -22 -23c-16 -13 -25 -20 -26 -20s-1 30 -2 90c-22 -11 -40 -22 -53 -28s-19 -7 -19 -6c0 3 1 13 4 29c3 17 6 26 8 26c1 0 21 11 59 32v127c-24 -13 -43 -22 -54 -28
c-12 -5 -17 -6 -17 -5c0 3 1 13 4 30c3 16 6 25 8 25s22 11 59 32v142c0 1 4 6 13 14c7 9 16 19 25 28c9 8 14 12 15 12s1 -56 0 -166l65 35v77c0 1 8 11 24 28s26 26 29 26c1 0 1 -35 1 -103c23 13 41 21 54 27c12 5 18 7 18 5l-2 -16c-2 -8 -4 -18 -6 -27
c-4 -9 -5 -14 -6 -14l-38 -21l-20 -10c-1 -27 -1 -69 -1 -126zM124 -76c7 3 18 10 33 17c14 9 24 15 32 19v124l-65 -34v-126z" />
    <glyph glyph-name="uniE030" unicode="&#xe030;" horiz-adv-x="60" 
d="M57 1020l3 -999c0 -1 -53 -48 -55 -48s-7 1013 -4 1013c0 0 1 0 56 34z" />
    <glyph glyph-name="uniE043" unicode="&#xe043;" horiz-adv-x="91" 
d="M91 93c0 -25 -20 -46 -45 -46c-26 0 -46 21 -46 46s20 46 46 46c25 0 45 -21 45 -46zM91 -123c0 -25 -20 -46 -45 -46c-26 0 -46 21 -46 46s20 46 46 46c25 0 45 -21 45 -46z" />
    <glyph glyph-name="uniEA02" unicode="&#xea02;" horiz-adv-x="925" 
d="M67 19c0 0 -41 3 -64 -15c-16 -13 44 -15 64 -41c21 -27 57 -19 72 -15c15 3 15 -9 43 -32c27 -25 82 -193 305 2c141 123 256 147 308 128c73 -27 38 -107 45 -135c1 -11 147 97 53 183c-65 60 -226 -47 -368 -111c-103 -46 -120 -71 -204 -59c-91 13 -122 104 -122 104
s-42 -59 -66 -41c-23 17 -66 32 -66 32z" />
    <glyph glyph-name="uniE1FC" unicode="&#xe1fc;" horiz-adv-x="110" 
d="M57 -53c-15 0 -29 5 -40 15c-12 11 -17 24 -17 39s7 28 18 38c12 11 24 15 39 15s27 -5 38 -15c10 -10 15 -23 15 -38s-5 -29 -15 -39c-11 -10 -23 -15 -38 -15z" />
    <glyph glyph-name="uniE4C0" unicode="&#xe4c0;" horiz-adv-x="677" 
d="M10 -135c-1 0 -3 2 -6 6c-3 3 -4 6 -4 8l5 18c3 11 9 26 17 45s18 39 30 60s28 42 48 64s42 42 67 60c24 17 54 32 89 43s73 17 113 17c36 0 69 -3 100 -12s56 -20 77 -33s40 -27 56 -45c16 -17 29 -34 38 -50s16 -31 22 -46s10 -26 12 -34s3 -13 3 -15
c0 -4 -8 -19 -23 -45c-16 -27 -25 -40 -27 -40c-1 0 -2 4 -3 11c-2 11 -4 21 -5 29c-2 8 -6 21 -12 39c-7 18 -14 34 -22 47s-20 28 -35 45c-16 16 -33 29 -52 40s-44 20 -73 27s-61 11 -96 11c-29 0 -57 -5 -84 -14s-51 -21 -71 -36c-21 -15 -40 -30 -58 -48
s-33 -36 -46 -53c-13 -18 -23 -34 -32 -49s-15 -27 -20 -36s-7 -14 -8 -14zM371 1c0 8 -2 15 -5 22c-3 6 -8 11 -14 15c-7 3 -14 5 -22 5c-11 0 -21 -4 -29 -12c-9 -9 -13 -19 -13 -30c0 -12 4 -22 13 -29c8 -8 18 -12 29 -12c12 0 22 4 30 12c7 7 11 17 11 29z" />
    <glyph glyph-name="uniE4C1" unicode="&#xe4c1;" horiz-adv-x="653" 
d="M642 113c2 0 4 -2 7 -6s4 -7 4 -8c0 -5 0 -12 -1 -21c-1 -8 -3 -24 -7 -48c-4 -23 -10 -46 -17 -68c-7 -21 -19 -45 -35 -71s-35 -49 -56 -68c-22 -20 -51 -34 -86 -47s-75 -19 -118 -19c-39 0 -75 4 -108 13s-61 21 -83 35c-23 15 -43 31 -61 49c-17 19 -31 37 -41 54
c-9 17 -17 34 -24 50s-11 28 -13 37s-3 14 -3 17c0 2 2 8 7 17c5 10 11 20 18 31l19 29c6 9 9 14 10 14s2 -5 3 -15s4 -23 8 -39c5 -16 11 -34 19 -53s21 -38 36 -57s34 -37 56 -53c21 -15 50 -28 85 -38s73 -15 116 -15c31 0 60 5 87 15c26 11 48 24 66 40
c17 17 34 35 47 55s24 40 32 60s15 38 20 54c5 17 8 30 10 40zM344 -47c-12 0 -22 4 -31 13s-14 20 -14 32s5 22 14 31s19 14 31 14c13 0 23 -4 32 -13s13 -19 13 -32s-4 -23 -13 -32s-19 -13 -32 -13z" />
    <glyph glyph-name="uniEA00" unicode="&#xea00;" horiz-adv-x="697" 
d="M429 282c66 0 58 -82 58 -87c0 -8 -50 -49 -55 -49c-4 0 0 75 -36 75c-17 0 -37 -13 -37 -30c0 -37 85 -92 85 -148c0 -61 -74 -157 -146 -157c-75 0 -100 43 -100 64c0 17 80 100 80 84c0 -33 11 -79 53 -79c25 0 36 21 36 38c0 40 -94 68 -94 142c0 43 83 147 156 147z
M46 89c25 0 46 -19 46 -46c0 -25 -21 -45 -46 -45s-46 20 -46 45c0 27 21 46 46 46zM651 89c25 0 46 -19 46 -46c0 -25 -21 -45 -46 -45s-46 20 -46 45c0 27 21 46 46 46zM366 -206c27 0 46 -19 46 -46c0 -25 -19 -45 -46 -45c-25 0 -45 20 -45 45c0 27 20 46 45 46z" />
    <glyph glyph-name="uniE8E4" unicode="&#xe8e4;" horiz-adv-x="950" 
d="M942 489c-14 -23 -17 -52 -17 -80c-566 -28 -876 -409 -901 -409h-24c0 5 363 522 950 566c-11 -14 -24 -26 -30 -44c-6 -21 11 -24 22 -33z" />
    <glyph glyph-name="uniE8E5" unicode="&#xe8e5;" horiz-adv-x="1020" 
d="M2 516c16 -25 19 -55 19 -87c607 -27 941 -430 968 -430h25c0 5 -389 551 -1020 598c12 -14 25 -27 32 -47c7 -22 -12 -24 -24 -34z" />
    <glyph glyph-name="uniF0A0" unicode="&#xf0a0;" horiz-adv-x="693" 
d="M691 -202c9 -12 -10 -24 -19 -15l-59 68c0 -8 -1 -17 -1 -25c0 -14 -22 -14 -22 0v52c-24 28 -48 57 -72 85c-7 -15 -13 -30 -21 -45c0 -2 1 -3 1 -4h-3c-1 -3 -2 -6 -4 -9c0 -8 -19 -3 -19 6l-2 8c-12 -42 -26 -83 -42 -124c-3 -9 -24 -9 -24 0c-11 67 -18 134 -21 201
l-18 -24c-9 -9 -19 -9 -23 0c-18 28 -31 56 -40 85c-17 -102 -38 -204 -63 -306c-4 -12 -23 -9 -23 5c-2 78 -4 155 -4 232c-4 -16 -7 -34 -10 -51c-16 -44 -30 -107 -77 -130c-12 -3 -21 0 -21 9c1 27 1 55 2 82c-19 -37 -35 -76 -50 -115c-2 -7 -10 -8 -17 -5
c-3 -49 -5 -97 -7 -146c0 -14 -25 -14 -25 0c-14 300 -8 601 20 896c5 14 29 14 26 0c-23 -208 -31 -419 -29 -630c16 170 39 340 71 512c5 9 25 4 25 -5c6 -136 10 -274 10 -412c25 42 52 83 80 123c1 4 2 8 2 12c1 67 3 133 6 200c-48 68 -92 139 -128 214
c-5 14 14 23 19 9c32 -65 69 -126 110 -184c4 78 9 157 16 236c0 14 23 14 23 0c8 -97 8 -195 1 -291c8 -11 16 -22 24 -32c7 63 20 127 35 188c0 9 24 9 24 -5v-4v-1c-3 -65 -8 -130 -14 -195l66 75c3 22 6 45 10 67c0 14 21 9 24 0c3 -7 6 -14 8 -21
c63 68 124 136 176 211c6 14 32 5 21 -9c-58 -80 -123 -153 -189 -226c25 -87 21 -180 -11 -266l27 -30c2 61 13 123 32 184c-1 5 -1 10 -1 15h5c1 2 1 3 2 5c0 9 20 9 20 -5c2 -80 -6 -161 -22 -241l13 -15c47 126 70 261 89 395c0 12 25 8 25 -6c-4 -170 -5 -339 -9 -509
c26 -29 51 -59 77 -89zM414 117c23 72 26 147 10 220l-6 -7c-9 -67 -13 -134 -15 -201c4 -4 8 -8 11 -12zM381 156c1 48 4 96 9 143c-22 -24 -43 -49 -64 -74l39 -50c5 -6 11 -13 16 -19zM42 -185c19 46 40 91 64 135c0 114 -2 228 -6 342c-28 -158 -47 -318 -58 -477z
M280 245c-8 10 -16 21 -24 32c-4 -40 -10 -80 -17 -119c0 -2 0 -3 -1 -5c14 18 27 35 41 51c0 14 1 27 1 41zM527 -14c21 -24 42 -48 63 -71v13c0 3 1 5 1 7c2 101 2 202 4 303c-17 -85 -36 -170 -68 -252zM355 -2c9 14 18 28 26 42c-1 29 -1 57 -1 86l-27 32
c-11 13 -22 25 -32 38c-3 -26 -7 -52 -10 -77c7 -42 21 -82 44 -121zM237 -153c20 90 37 180 50 270c-3 18 -5 36 -7 53c-15 -19 -30 -38 -45 -58c-1 -88 0 -176 2 -265zM406 95l-3 4v-12zM421 -152c16 44 30 88 41 133c-2 17 -3 34 -3 52l-34 40c-6 -14 -13 -28 -20 -42
c2 -61 7 -123 16 -183zM186 -19c6 29 12 56 16 84c-26 -39 -50 -78 -72 -119c0 -36 0 -72 -1 -107c39 34 45 99 57 142zM490 -42c4 8 7 17 11 25c-4 5 -7 9 -11 13l-3 -14z" />
    <glyph glyph-name="uniF0A6" unicode="&#xf0a6;" horiz-adv-x="994" 
d="M140 563c10 -15 10 -15 15 -11s8 8 2 14c-8 8 -12 2 -17 -3zM314 -394l8 -12c2 -4 4 -9 4 -13s-2 -7 -4 -11c-5 -16 11 -25 12 -39c0 -1 6 -3 8 -3c10 3 18 8 22 19c2 8 6 14 9 21c2 4 4 8 3 11s-7 6 -9 6c-4 -1 -7 -6 -9 -10c-1 -2 -1 -6 -1 -9h-22c4 9 5 19 9 20
c13 3 26 4 38 2c4 0 7 -12 10 -19c3 -11 14 -16 26 -11c7 3 15 6 14 16c0 2 3 4 5 5c10 6 25 10 28 18c5 14 18 11 26 16c4 2 13 -7 20 -12c5 8 8 21 16 25c9 5 22 1 35 1c0 1 3 4 4 8c3 13 21 23 33 18c2 -2 7 -3 8 -3c3 4 7 11 6 12c-7 7 0 13 2 18c4 10 16 17 22 12
c8 -6 16 3 17 3c3 13 14 14 25 14c0 4 0 7 1 11c1 30 3 61 5 92c0 8 0 17 2 24c6 18 3 33 -10 46c-11 12 -10 15 2 24c3 2 6 8 5 9c-5 9 0 14 6 19c-6 6 -9 10 -18 4c-8 -6 -19 1 -22 12c-1 7 0 14 11 13c2 0 7 9 5 13c-6 16 0 42 20 49c8 3 11 11 8 19l-8 12
c-5 -11 -7 -24 -15 -30c-10 -8 -11 -27 -29 -26c-1 0 -2 -4 -3 -4c-4 -2 -9 -5 -12 -4c-17 8 -22 30 -14 45c-2 10 -22 14 -4 27c1 1 0 5 1 7c0 3 1 6 2 8c11 12 22 24 32 36l25 28c9 10 17 20 27 29c10 8 22 15 32 23c11 8 22 18 33 27l49 43c-1 1 -2 2 -2 3
c-3 0 -6 1 -7 0c-16 -12 -33 -24 -48 -38c-8 -8 -14 -8 -23 -1c-15 10 -31 12 -36 -11l-4 -6c-12 -12 -24 -22 -42 -19c-6 1 -12 -1 -17 -2c-2 -1 -5 -2 -7 -1c-10 6 -20 11 -29 17c-14 9 -17 32 -8 53c5 11 4 20 1 31c-4 13 -10 18 -24 17c-2 0 -4 3 -6 4l-7 -7
c-7 -9 -15 -18 -5 -31c8 -11 15 -22 24 -33c7 -9 11 -25 5 -36c-4 -8 -11 -14 -14 -22c-3 -12 -19 -26 -30 -29c-10 -1 -20 -5 -28 -10c-12 -7 -23 -16 -35 -25c-2 11 -4 19 -6 28c7 3 13 6 21 10c-3 6 -7 11 -8 16s0 10 1 15c8 -3 13 -4 19 -6c2 6 3 11 4 16
c-14 -2 -21 10 -20 18s0 24 14 23c13 14 4 26 -3 38c9 1 15 1 21 1c3 13 -7 14 -16 18c3 6 5 11 8 15c4 6 5 8 -2 12s-17 11 -18 17c0 10 -3 16 -9 22c-16 16 -16 19 1 35l1 4c-11 5 -22 12 -34 15c-17 4 -25 12 -25 30v10c-1 6 -3 9 -11 7c-7 -2 -14 -1 -26 -2
c4 13 7 23 11 34c-16 5 -16 -11 -22 -18c-23 -1 -26 0 -34 16c2 3 6 5 6 8c1 4 0 9 -1 14c-9 -5 -15 2 -22 6c-1 0 -4 -1 -4 -2c-3 -3 -6 -8 -5 -9c3 -5 7 -9 14 -16c-6 0 -11 -2 -15 0c-13 6 -14 12 -8 26c3 5 2 12 2 17c0 1 -5 2 -9 3v-23c-11 -5 -21 -11 -32 -15
c-5 -2 -14 -1 -18 3c-8 8 -13 6 -20 -2c-3 -4 -15 -7 -16 -6c-5 9 -18 13 -18 26c1 2 -2 7 -4 7s-7 -2 -8 -4c0 -4 1 -9 1 -13c2 -8 5 -16 5 -23c0 -8 -11 -11 -18 -7c-6 4 -12 8 -17 12l-67 -67c-3 6 -7 13 -11 20c-2 -1 -3 -2 -4 -2c0 -3 -2 -8 -1 -10
c10 -15 -2 -23 -10 -32c-2 -2 -4 -5 -5 -8c-2 -7 -2 -14 -5 -21c-7 -13 -11 -29 -31 -24c-1 1 -2 0 -3 -1c0 -2 0 -5 1 -7c7 -7 15 -12 11 -25c-3 -8 -3 -16 -11 -20c-13 -6 -13 -7 -5 -20c6 -10 18 -20 8 -32c-6 -3 -10 -4 -14 -6l9 -9l6 -3c6 -3 6 -11 1 -15
c-2 -1 -4 -4 -6 -5c2 -2 5 -3 7 -5c5 -4 11 -8 12 -12c0 -4 -7 -9 -11 -12s-9 -4 -16 -7l9 -7c9 3 18 8 26 6c6 -1 9 -11 14 -18c-43 -17 -43 -17 -52 -29c8 0 16 -1 22 1c9 4 18 10 27 15c9 4 19 -1 21 -10c2 -7 4 -13 7 -20c3 -8 7 -15 10 -23c2 2 4 4 6 7
c5 -6 10 -12 15 -17l-6 -7c3 2 7 5 8 4c15 -8 34 -9 43 -25c2 -5 1 -13 -2 -19c-3 -7 -7 -4 -13 -1c-5 2 -12 -2 -18 -3v-4c3 -2 6 -6 9 -7c17 -5 20 -13 12 -30c-4 -9 -1 -17 8 -22c-1 -15 10 -21 20 -27c8 -5 13 -15 8 -23c-6 -12 -38 -23 -51 -18c-12 6 -30 2 -36 -9
c10 0 19 2 27 0c6 -1 12 -6 17 -9c-3 -4 -7 -8 -11 -10c-10 -6 -10 -10 -3 -17c20 4 38 8 58 11c-2 -9 -3 -18 -5 -27c-7 3 -28 -9 -28 -16c0 -2 0 -3 1 -5c5 -24 10 -47 -11 -68c13 -11 1 -23 0 -33c11 -4 22 -5 29 -11c6 -5 20 -13 5 -25c3 -3 7 -7 8 -7c12 8 20 3 29 -5
h1c10 -2 14 -10 10 -19c-2 -6 -3 -13 -4 -20c8 -1 13 -1 18 -2c7 -18 7 -19 17 -17c0 5 1 11 2 20c9 -3 19 -3 24 -8s4 -15 6 -25c5 1 9 2 14 4zM915 449c7 12 12 21 17 31c-10 1 -21 -15 -17 -31zM771 398c-2 -1 -3 -3 -5 -5c3 -4 5 -8 7 -12c4 4 7 7 11 10
c-4 3 -9 5 -13 7zM994 389c-14 3 -23 -6 -21 -19c7 7 14 13 21 19zM842 315c4 10 7 18 10 27c0 1 -7 6 -10 5c-15 -5 -16 -17 0 -32zM864 290c20 20 39 38 59 56c-20 1 -61 -36 -59 -56zM526 214c14 -4 10 7 11 12c0 2 -5 5 -8 8l-3 -2v-18zM784 156c0 7 -8 16 -13 12
c-11 -8 -21 -17 -30 -27c-3 -3 -3 -12 0 -15c2 -4 9 -7 14 -7c7 0 29 29 29 37zM897 122c17 2 31 14 31 28c-1 9 -5 12 -14 14c-15 3 -25 -6 -35 -13s-10 -19 1 -24c5 -2 11 -3 17 -5zM932 120c-4 0 -9 1 -12 -1c-8 -2 -16 -5 -21 -11c-7 -6 4 -22 15 -23c13 -3 23 6 34 9
c8 3 11 8 9 14c-2 5 -8 9 -13 11c-3 2 -8 1 -12 1zM690 80c-1 6 -1 10 -1 14c-20 3 -25 0 -23 -14h24zM651 74c-7 -20 -7 -21 13 -18v12c-4 2 -8 4 -13 6zM797 -54c13 -1 22 1 26 12c3 7 8 14 9 21c1 5 -1 13 -5 15c-5 3 -12 4 -15 -6c-4 -13 -10 -26 -15 -42zM712 -51
c-4 3 -6 5 -8 7c-2 -2 -4 -5 -4 -8c0 -2 3 -5 5 -7zM94 -155c-11 -9 -19 -17 -30 -26c17 -2 32 10 30 26zM109 -271c1 10 -8 21 -16 19c-5 -1 -9 -6 -13 -9c4 -4 8 -8 13 -10s11 0 16 0zM563 -413c3 -1 10 -4 12 -2c8 6 15 14 20 22c2 4 -3 11 -5 20
c-10 -15 -18 -26 -27 -40z" />
    <glyph glyph-name="uniF0A7" unicode="&#xf0a7;" horiz-adv-x="808" 
d="M134 -92c25 19 42 39 52 64c27 52 7 111 -40 139c-29 15 -61 15 -94 7c-20 -5 -37 -12 -52 -17c20 25 45 49 65 77c29 37 57 79 69 126c10 32 12 67 -12 94c-13 12 -30 22 -42 32c17 -2 39 -5 59 -2c32 0 64 0 94 5c27 5 32 19 20 44l-15 30c-7 12 -2 20 12 22
c35 8 67 0 102 -7c30 -5 57 -13 87 -18c34 -4 69 3 101 23c15 -25 37 -35 65 -35c32 -2 67 -2 99 -2h32c15 -3 20 -10 12 -25c-2 -5 -5 -10 -10 -15c-19 -17 -32 -42 -37 -69c-5 -15 -7 -30 -10 -47c-7 -43 0 -80 30 -112c22 -27 47 -49 69 -74c20 -20 23 -22 10 -47
c-2 -8 -7 -13 -10 -18l-37 -42c-22 -22 -39 -47 -49 -77c0 -9 -3 -17 -5 -24c-55 27 -99 7 -141 -25c-13 -10 -23 -20 -38 -30c-32 -22 -59 -17 -84 15c-5 8 -12 15 -20 25c-5 -8 -12 -15 -14 -22c-8 -15 -13 -33 -18 -47c-2 -5 -10 -10 -15 -18c-2 8 -2 10 -5 15
c-5 17 -10 35 -17 52c-12 27 -35 42 -64 42c-20 -2 -40 -5 -60 -10c-27 -7 -57 -20 -89 -29z" />
    <glyph glyph-name="uniF0A2" unicode="&#xf0a2;" horiz-adv-x="729" 
d="M374 660l-10 -571c0 -104 -113 -243 -242 -243c-94 0 -122 21 -122 86c0 100 151 207 287 207c1 0 6 540 6 561c0 9 70 52 76 52h1c25 10 359 137 359 133c0 0 -6 -113 -7 -113s-345 -118 -348 -112z" />
    <glyph glyph-name="uniF0A8" unicode="&#xf0a8;" horiz-adv-x="553" 
d="M265 -708l1 36l-1 499c-126 0 -265 99 -265 192c0 61 26 79 112 79c120 0 224 -129 224 -225v-478l217 55v-100z" />
    <glyph glyph-name="uniE1F3" unicode="&#xe1f3;" horiz-adv-x="425" 
d="M417 734l8 -106l-11 -549c0 -100 -110 -235 -232 -235c-92 0 -119 19 -119 83c0 96 146 201 277 201c1 0 4 149 5 310l-10 168l-335 -91v80c13 5 220 75 417 139z" />
    <glyph glyph-name="uniF0A9" unicode="&#xf0a9;" horiz-adv-x="353" 
d="M353 -628c3 -22 -12 -76 -7 -76h1c22 -10 -344 -109 -344 -106c0 2 -2 100 -3 100c-2 0 171 44 276 69l-1 473c-120 0 -252 95 -252 182c0 58 25 75 107 75c113 0 211 -122 211 -213z" />
    <glyph glyph-name="uniF0B0" unicode="&#xf0b0;" horiz-adv-x="717" 
d="M398 591l-4 -165l-6 -352c0 -94 -103 -220 -219 -220c-86 0 -110 18 -110 78c0 90 137 188 260 188c1 0 2 141 3 292l-7 82l-2 76l-313 -86v76c21 7 717 238 717 234c0 -1 -3 -102 -5 -102c-60 0 -309 -117 -314 -101z" />
    <glyph glyph-name="uniF0B1" unicode="&#xf0b1;" horiz-adv-x="736" 
d="M426 -620l-9 135l-6 372c0 99 -109 233 -231 233c-91 0 -117 -19 -117 -83c0 -95 145 -198 274 -198c2 0 3 -149 4 -309l-8 -88l-1 -79l-332 -136v-80c21 -9 736 200 736 202c0 3 -3 110 -5 110c-64 0 -301 -62 -305 -79z" />
    <glyph glyph-name="uniF0A4" unicode="&#xf0a4;" horiz-adv-x="738" 
d="M383 486h-9l-8 -391c0 -105 -114 -245 -243 -245c-95 0 -123 20 -123 87c0 100 152 209 289 209c2 0 7 542 7 565c0 7 70 51 75 51l2 1c23 8 360 136 360 134c0 -3 -5 -115 -6 -115c-67 0 -345 -131 -350 -113l-2 -91l4 1c23 10 359 137 359 133l-4 -113
c-2 0 -349 -119 -351 -113z" />
    <glyph glyph-name="uniF0B3" unicode="&#xf0b3;" horiz-adv-x="698" 
d="M363 -505h-10l-7 369c0 100 -108 232 -229 232c-91 0 -117 -19 -117 -81c0 -96 143 -198 272 -198c3 0 7 -514 7 -534c0 -7 66 -49 72 -49l2 -1c21 -8 339 -129 339 -126s-4 108 -6 108c-61 0 -324 123 -330 107l-3 86l5 -1c22 -9 340 -130 340 -125c0 1 -4 106 -5 106
c-2 0 -329 113 -330 107z" />
    <glyph glyph-name="uniE1F5" unicode="&#xe1f5;" horiz-adv-x="412" 
d="M324 584v81c-116 28 -311 79 -310 79s5 109 5 110c0 4 409 -108 385 -116l-1 -1c-5 0 12 -63 8 -85l-13 -565c0 -101 -111 -240 -237 -240c-92 0 -120 21 -120 86c0 97 148 203 282 203l1 353h-15c-115 28 -310 79 -309 79s5 108 5 110c0 4 318 -84 319 -94z" />
    <glyph glyph-name="uniF0B4" unicode="&#xf0b4;" horiz-adv-x="382" 
d="M301 -631v76c-1 -10 -297 -92 -297 -87c0 1 -3 102 -4 102s180 47 287 74h14l-1 327c-125 0 -263 100 -263 190c0 59 26 79 112 79c118 0 221 -128 221 -222l12 -526c3 -21 -12 -79 -8 -79l1 -1c23 -8 -357 -112 -357 -109c0 1 -4 103 -5 103s180 47 288 73z" />
    <glyph glyph-name="uniF0B2" unicode="&#xf0b2;" horiz-adv-x="754" 
d="M340 433l-243 -58l39 94l195 51l-2 78l-329 -89v79c22 8 754 250 754 247c0 -2 -5 -108 -6 -108c-63 0 -325 -123 -330 -107l-2 -85l4 1c22 9 222 87 222 84c0 -2 43 -89 42 -89s-259 -89 -260 -83h-9l-7 -369c0 -98 -108 -231 -230 -231c-90 0 -116 19 -116 82
c0 95 144 198 273 198c1 0 3 147 5 305z" />
    <glyph glyph-name="uniF0B5" unicode="&#xf0b5;" horiz-adv-x="764" 
d="M354 -496l-288 -51l37 -92l238 47l2 -84l-343 -59v-82c23 -8 764 59 764 62s-4 113 -6 113c-64 0 -321 -9 -327 -27l-1 89l3 -1c27 3 216 45 216 49c0 2 44 92 43 92s-253 -45 -255 -50h-8l-8 381c0 101 -111 238 -236 238c-94 0 -121 -20 -121 -84
c0 -97 148 -204 282 -204c1 0 6 -176 8 -337z" />
    <glyph glyph-name="uniE934E93F" unicode="&#xf570;" horiz-adv-x="431" 
d="M1 275c-5 0 8 -539 8 -544c0 -4 65 -47 68 -47c2 0 3 90 2 195c29 -41 80 -69 168 -69c43 0 81 19 106 48l7 -661c0 -4 65 -47 68 -47c6 0 0 1046 0 1052c0 4 -73 68 -76 68c-1 0 -1 -90 0 -218c-34 46 -88 83 -152 83c-54 0 -96 -9 -122 -28c-1 58 -1 98 -1 100
c0 4 -74 68 -76 68z" />
    <glyph glyph-name="uniE934E93E" unicode="&#xf572;" horiz-adv-x="365" 
d="M364 714c5 0 -6 -900 -6 -904s-53 -39 -55 -39s-3 51 -3 130c-25 -37 -69 -65 -139 -65c-52 0 -83 17 -102 40l-2 -64c0 -5 -52 -40 -55 -40c-5 0 1 435 1 440c0 4 59 57 61 57c3 0 1 -103 -1 -215c30 38 79 63 142 63c38 0 72 -15 95 -36c1 255 3 573 3 576s60 57 61 57
z" />
    <glyph glyph-name="uniE938E94B" unicode="&#xf56a;" horiz-adv-x="540" 
d="M500 688c27 -49 40 -80 40 -93c0 -10 -7 -23 -21 -38c-14 -16 -23 -24 -27 -24c-2 1 -3 4 -2 8s2 9 3 16c2 6 3 10 3 11c0 3 -26 38 -78 107s-80 104 -84 105v-105c0 -1 25 -36 75 -105c50 -70 75 -110 75 -119s-8 -23 -23 -44s-24 -32 -28 -32c-1 0 -2 1 -3 4v23
c1 4 1 8 1 12v7c0 3 -8 14 -24 33s-32 37 -49 54c-16 17 -24 25 -24 24l-1 -14v-324c1 -15 4 -28 4 -37l-3 -207s-51 -32 -66 -40c-16 -8 -36 -16 -61 -25c-25 -8 -49 -12 -73 -12c-38 0 -70 7 -95 22c-26 15 -39 37 -39 64c0 51 28 97 84 138c51 37 103 56 156 57
c18 0 34 -2 48 -8l-3 273c-3 270 -4 410 -4 421c0 8 11 18 34 30s38 18 45 18s26 -21 55 -64c30 -43 58 -88 85 -136z" />
    <glyph glyph-name="uniE938E94C" unicode="&#xf569;" horiz-adv-x="348" 
d="M0 -55c0 51 28 97 84 138c51 37 103 56 156 57c55 0 87 -22 97 -67c1 -9 2 -18 2 -28l5 -411c3 -270 4 -410 4 -421c0 -8 -11 -18 -34 -30s-38 -18 -45 -18s-26 21 -55 64c-30 43 -58 88 -85 136c-27 49 -40 80 -40 93c0 10 7 23 21 38c14 16 23 24 27 24c2 -1 3 -4 2 -8
s-2 -9 -3 -16c-2 -6 -3 -10 -3 -11c0 -3 26 -38 78 -107s80 -104 84 -105v105c0 1 -25 36 -75 105c-50 70 -75 110 -75 119s8 23 23 44s24 32 28 32c1 0 2 -1 3 -4v-23c-1 -4 -1 -8 -1 -12v-7c0 -3 8 -14 24 -33s32 -37 49 -54c16 -17 24 -25 24 -24l1 14v324
c-1 15 -1 27 -1 36c-1 9 -1 13 -2 13l-25 -12c-16 -8 -36 -16 -61 -25c-25 -8 -49 -12 -73 -12c-38 0 -70 7 -95 22c-26 15 -39 37 -39 64z" />
    <glyph glyph-name="uniE938E94A" unicode="&#xf5a5;" horiz-adv-x="554" 
d="M527 133c52 -62 34 -159 -94 -225c-76 -39 -133 -39 -170 -24c0 -115 7 -716 7 -737c0 -39 -38 -68 -63 -70c-25 -1 -207 219 -207 266c0 36 67 103 98 115c22 9 53 8 41 2c-14 -8 -61 -51 -61 -64c0 -24 115 -171 115 -148c0 19 12 716 12 722c4 48 39 105 95 140
c76 45 191 69 227 23z" />
    <glyph glyph-name="uniE938E949" unicode="&#xf5a6;" horiz-adv-x="463" 
d="M355 9c3 -29 4 -45 3 -47c3 -22 -3 -41 -14 -59c-11 -17 -25 -29 -39 -38c-16 -7 -30 -12 -43 -13c-16 -1 -38 2 -66 11c-28 8 -56 19 -84 35c-29 15 -54 33 -75 57c-22 24 -34 46 -37 71c-1 17 1 32 8 44c6 12 15 22 27 28c10 6 21 11 30 15c10 3 19 5 27 6
c29 3 60 1 92 -9s63 -23 91 -42l-7 67c-22 220 -10 110 -15 165c-5 59 -11 121 -16 184l-14 171c-4 52 -9 96 -11 133c-4 37 -6 57 -6 63c-1 9 6 26 20 51c14 24 26 36 32 37c9 1 30 -26 63 -81c34 -56 66 -113 95 -173c30 -59 45 -95 47 -107c1 -10 -6 -22 -20 -42
c-13 -18 -31 -29 -54 -31c-6 -1 -6 1 -1 7c12 14 19 25 20 33v4c-1 11 -21 47 -59 110c-37 62 -60 94 -69 95c10 -111 26 -327 60 -618z" />
    <glyph glyph-name="uniE911" unicode="&#xe911;" horiz-adv-x="532" 
d="M266 -266c-70 0 -137 28 -187 78s-78 117 -78 188c0 70 28 137 78 187s117 78 187 78c71 0 138 -28 188 -78s78 -117 78 -187c0 -71 -28 -138 -78 -188s-117 -78 -188 -78zM266 217c-58 0 -112 -23 -153 -64s-64 -95 -64 -153s23 -113 64 -154s95 -64 153 -64
s113 23 154 64s64 96 64 154s-23 112 -64 153s-96 64 -154 64z" />
    <glyph glyph-name="uniE939E93E" unicode="&#xf5a1;" horiz-adv-x="303" 
d="M296 -11c1 -31 1 -56 -1 -72c-4 -16 -10 -30 -21 -37c-11 -10 -27 -15 -51 -17c-15 -1 -35 2 -58 10c-23 7 -48 17 -71 31c-23 15 -44 33 -61 56s-26 47 -28 72c-3 29 3 52 16 69c11 16 26 25 44 26c27 3 52 0 77 -8c26 -6 45 -15 60 -23c13 -8 21 -12 22 -12l-10 287
c-8 193 -9 289 -5 289c5 1 13 -10 23 -30c8 -21 14 -35 14 -42c0 -1 3 -22 6 -65c3 -42 8 -91 12 -148l15 -176c5 -61 10 -111 12 -148c3 -37 5 -58 5 -62zM140 90c-24 -1 -41 -10 -54 -26c-12 -15 -17 -34 -16 -58c2 -30 18 -56 49 -82c29 -24 56 -35 79 -34
c16 2 30 11 42 29c12 19 16 40 14 61c-1 24 -16 50 -43 75s-52 36 -71 35z" />
    <glyph glyph-name="uniE939E93F" unicode="&#xf59b;" horiz-adv-x="374" 
d="M352 109c45 -43 24 -136 -101 -187c-81 -33 -141 -38 -184 -27c6 -98 24 -418 19 -433c-6 -20 -55 -44 -65 -44c-11 -2 -21 469 -21 543c-3 46 35 110 135 146c102 40 182 37 217 2zM213 -58c74 31 115 86 74 134c-27 30 -87 31 -153 -5c-54 -29 -84 -79 -67 -108
c22 -36 76 -51 146 -21z" />
    <glyph glyph-name="uniE939E949" unicode="&#xf5aa;" horiz-adv-x="483" 
d="M322 862c9 0 32 -53 57 -110c26 -59 49 -118 71 -180c22 -61 33 -98 33 -111c0 -3 -2 -8 -5 -15s-8 -15 -14 -22c-6 -8 -13 -15 -23 -20s-20 -8 -32 -8c-4 0 -4 2 0 7c13 15 21 26 21 35c0 11 -15 50 -44 115c-25 58 -43 91 -52 98c1 -20 1 -42 2 -65l6 -429
c1 -138 2 -207 1 -207c0 -31 -12 -56 -35 -73c-24 -17 -47 -26 -70 -26c-16 0 -37 5 -63 16c-27 11 -53 26 -79 43c-26 18 -48 39 -67 64c-20 25 -29 49 -29 73c0 17 4 31 12 43c7 11 17 20 28 25s22 9 32 12c9 2 18 3 26 3c29 0 58 -6 89 -18c31 -13 59 -29 84 -49
c-7 319 -11 537 -12 654c4 62 6 125 7 187c7 -2 39 -23 56 -42zM267 -88c14 18 21 37 21 58c0 22 -8 42 -23 59c-16 17 -34 30 -53 38c-19 7 -38 11 -56 11c-33 0 -58 -7 -73 -22s-23 -32 -23 -53c0 -25 19 -51 57 -78c37 -27 68 -40 91 -40c25 0 45 9 59 27z" />
    <glyph glyph-name="uniE939E94A" unicode="&#xf5a9;" horiz-adv-x="347" 
d="M343 40c1 0 0 -69 -1 -207l-6 -429c-3 -148 -4 -227 -4 -238c0 -9 -10 -25 -29 -48c-19 -22 -33 -33 -40 -33c-11 0 -32 29 -63 86c-31 58 -60 117 -87 178s-40 98 -40 110c0 3 2 8 6 15s10 15 17 22c7 8 16 15 28 20s25 8 39 8c6 0 6 -2 1 -7c-17 -15 -26 -26 -26 -35
c0 -11 18 -49 54 -114c35 -65 58 -98 67 -99c1 115 5 335 12 658c-25 -20 -53 -36 -84 -49c-31 -12 -60 -18 -89 -18c-8 0 -17 1 -26 3c-10 3 -21 7 -32 12s-21 14 -28 25c-8 12 -12 26 -12 43c0 24 9 48 29 73c19 25 41 46 67 64c26 17 52 32 79 43c26 11 47 16 63 16
c23 0 46 -9 70 -26c23 -17 35 -42 35 -73zM156 -88c18 0 37 4 56 11c19 8 37 21 53 38c15 17 23 37 23 59c0 21 -7 40 -21 58s-34 27 -59 27c-23 0 -54 -13 -91 -40c-38 -27 -57 -53 -57 -78c0 -21 8 -38 23 -53s40 -22 73 -22z" />
    <glyph glyph-name="uniE939E94B" unicode="&#xf56e;" horiz-adv-x="540" 
d="M500 688c27 -49 40 -80 40 -93c0 -10 -7 -23 -21 -38c-14 -16 -23 -24 -27 -24c-2 1 -3 4 -2 8s2 9 3 16c2 6 3 10 3 11c0 3 -26 38 -78 107s-80 104 -84 105v-105c0 -1 25 -36 75 -105c50 -70 75 -110 75 -119s-8 -23 -23 -44s-24 -32 -28 -32c-1 0 -2 1 -3 4v23
c1 4 1 8 1 12v7c0 3 -8 14 -24 33s-32 37 -49 54c-16 17 -24 25 -24 24l-1 -14v-324c1 -15 4 -28 4 -37l-3 -207l-41 -28c-1 0 -10 -4 -25 -12c-16 -8 -36 -16 -61 -25c-25 -8 -49 -12 -73 -12c-38 0 -70 7 -95 22c-26 15 -39 37 -39 64c0 51 28 97 84 138
c51 37 103 56 156 57c18 0 34 -2 48 -8l-3 273c-3 270 -4 410 -4 421c0 8 11 18 34 30s38 18 45 18s26 -21 55 -64c30 -43 58 -88 85 -136zM245 -51c14 8 26 19 35 33c4 7 7 15 10 24v2c0 1 -1 20 -1 57c-4 12 -10 22 -18 30c-15 14 -34 21 -55 21c-12 0 -26 -2 -42 -7
s-32 -12 -49 -21s-32 -21 -43 -38c-12 -17 -18 -35 -18 -55s9 -37 27 -50s41 -19 70 -19c13 0 27 2 42 5c14 4 28 10 42 18z" />
    <glyph glyph-name="uniE939E94C" unicode="&#xf56d;" horiz-adv-x="349" 
d="M0 -55c0 51 28 97 84 138c51 37 103 56 156 57c55 0 87 -22 97 -67c1 -9 2 -18 2 -28l5 -411c3 -270 4 -410 4 -421c0 -8 -11 -18 -34 -30s-38 -18 -45 -18s-26 21 -55 64c-30 43 -58 88 -85 136c-27 49 -40 80 -40 93c0 10 7 23 21 38c14 16 23 24 27 24c2 -1 3 -4 2 -8
s-2 -9 -3 -16c-2 -6 -3 -10 -3 -11c0 -3 26 -38 78 -107s80 -104 84 -105v105c0 1 -25 36 -75 105c-50 70 -75 110 -75 119s8 23 23 44s24 32 28 32c1 0 2 -1 3 -4v-23c-1 -4 -1 -8 -1 -12v-7c0 -3 8 -14 24 -33s32 -37 49 -54c16 -17 24 -25 24 -24l1 14v324
c-1 15 -1 27 -1 36c-1 9 -1 13 -2 13s-10 -4 -25 -12c-16 -8 -36 -16 -61 -25c-25 -8 -49 -12 -73 -12c-38 0 -70 7 -95 22c-26 15 -39 37 -39 64zM161 -88c13 0 27 2 42 5c14 4 28 10 42 18s26 19 35 33c9 15 13 32 13 51c0 27 -7 48 -22 62s-34 21 -55 21
c-12 0 -26 -2 -42 -7s-32 -12 -49 -21s-32 -21 -43 -38c-12 -17 -18 -35 -18 -55s9 -37 27 -50s41 -19 70 -19z" />
    <glyph glyph-name="uniE9E1" unicode="&#xe9e1;" horiz-adv-x="191" 
d="M154 147c7 0 12 -1 16 -3c4 -3 8 -8 11 -16s6 -20 8 -37c1 -17 2 -40 2 -67c0 -24 -11 -50 -32 -78c-22 -28 -47 -51 -74 -69c-28 -17 -51 -26 -69 -26c-11 0 -16 155 -16 466c0 95 28 143 85 143h2l8 -1c0 -1 -1 -2 -3 -3c-27 -21 -40 -56 -41 -104c0 -5 0 -35 -1 -88
s-1 -95 -1 -125c-1 -31 0 -52 1 -64c1 0 4 3 9 8s12 11 20 18s17 14 26 21s18 13 27 18s17 7 22 7zM77 -103c5 0 13 3 24 9s21 14 30 25s14 21 14 30c0 55 -2 92 -6 109s-12 26 -25 26c-8 0 -20 -7 -37 -21c-17 -15 -25 -25 -24 -32c0 -5 0 -12 1 -21c1 -49 3 -82 6 -99
s8 -26 17 -26z" />
    <glyph glyph-name="uniE080" unicode="&#xe080;" horiz-adv-x="533" 
d="M237 -358c-35 -2 -63 15 -86 40c-90 101 -131 209 -131 324c0 69 15 141 43 214c25 66 70 111 138 132c11 4 22 3 33 5c15 2 30 2 44 2c95 0 154 -47 194 -147c28 -68 41 -152 41 -236c0 -13 0 -27 -1 -40c-2 -55 -15 -114 -43 -171c-37 -76 -99 -108 -177 -119
c-18 -3 -37 -4 -55 -4zM286 -314c13 0 26 7 39 21c28 31 47 66 61 105c20 54 21 110 21 168c0 80 -18 174 -48 245c-14 33 -32 62 -62 83c-5 4 -10 6 -15 6c-4 0 -8 -1 -13 -3c-40 -14 -64 -45 -83 -79c-39 -69 -52 -144 -56 -222c-6 -120 38 -219 119 -305
c12 -13 24 -19 37 -19z" />
    <glyph glyph-name="uniE081" unicode="&#xe081;" horiz-adv-x="303" 
d="M183 -364c-22 0 -32 6 -31 24c10 127 7 254 17 381c4 63 6 127 6 191c0 13 -3 19 -10 19c-3 -1 -7 -1 -11 -3c-13 -4 -27 -6 -40 -6c-24 0 -48 5 -73 10c-7 1 -16 2 -19 12c-1 4 -2 8 -2 11c0 5 3 8 14 9c54 3 99 25 133 69c3 3 6 6 9 8c7 4 16 5 24 5
c35 0 74 -25 78 -57c3 -34 5 -67 5 -100c0 -13 0 -25 -1 -38l-18 -475c0 -12 -3 -24 -4 -36c0 -8 -4 -13 -12 -14c-22 -4 -42 -10 -65 -10z" />
    <glyph glyph-name="uniE082" unicode="&#xe082;" horiz-adv-x="680" 
d="M69 -377c-6 4 -7 12 -8 20c0 8 0 16 -1 23c-1 8 -2 16 -2 24c0 22 6 42 19 63c39 63 83 122 134 175c47 48 94 95 137 146c30 36 52 77 69 119c2 5 4 10 4 14c0 13 -11 22 -22 30c-30 22 -66 33 -104 33c-45 0 -92 -15 -130 -48s-72 -70 -105 -109c-3 -3 -5 -7 -9 -11
c-6 -6 -13 -15 -21 -15s-10 5 -10 10s3 12 2 17c-2 8 -2 16 -2 23c0 44 25 77 57 109c40 40 76 84 129 107c39 17 78 29 119 29c20 0 40 -3 61 -10c57 -19 84 -52 84 -116c0 -6 0 -13 -1 -20c-8 -111 -56 -206 -129 -287c-36 -40 -72 -79 -110 -117c-5 -5 -9 -10 -18 -21
c16 4 31 6 46 6c34 0 65 -10 96 -22c37 -16 76 -27 115 -27c23 0 46 4 69 12s42 19 60 37c11 11 23 20 35 30c6 5 14 11 21 7c6 -3 6 -14 6 -22c5 -64 -31 -106 -81 -138c-42 -27 -85 -39 -129 -39c-37 0 -75 10 -113 24c-22 8 -43 17 -65 22c-12 3 -25 4 -37 4
c-20 0 -39 -4 -58 -16c-29 -19 -60 -37 -87 -59c-6 -5 -13 -12 -21 -7z" />
    <glyph glyph-name="uniE083" unicode="&#xe083;" horiz-adv-x="560" 
d="M150 -375c-29 10 -54 25 -80 40c-16 10 -28 24 -32 41c-7 32 -15 61 -13 94c0 15 8 23 19 26c2 1 3 1 5 1c10 0 11 -13 12 -18c7 -24 24 -33 44 -45c47 -25 96 -41 146 -41c28 0 57 5 86 16c58 22 91 68 109 126c1 4 2 7 2 11c0 22 -21 37 -37 49c-24 20 -52 30 -81 30
c-11 0 -23 -2 -35 -5c-33 -8 -67 -16 -93 -42c-5 -5 -12 -9 -19 -6c-9 4 -9 13 -8 21v2c-3 11 -4 21 -4 30c0 53 37 85 75 120c63 58 117 123 172 197h-272c-36 0 -72 -2 -107 -5h-3c-14 0 -17 6 -16 19c2 21 1 42 5 62c3 21 13 29 33 31c60 6 121 6 182 6h39
c55 0 111 -2 166 -2c22 0 44 1 66 7c4 1 7 2 10 2c8 0 13 -5 16 -17c2 -9 3 -18 3 -26c0 -21 -6 -41 -19 -59c-51 -71 -100 -142 -158 -211c16 -4 31 -8 46 -13c56 -23 88 -67 94 -123c2 -18 3 -37 3 -55c0 -79 -22 -154 -86 -211c-52 -45 -111 -69 -174 -69
c-31 0 -63 6 -96 17z" />
    <glyph glyph-name="uniE084" unicode="&#xe084;" horiz-adv-x="653" 
d="M422 -489c-8 3 -7 15 -7 24c-1 10 -1 20 -1 31c0 46 5 90 7 134c4 57 5 114 7 171c-7 -2 -14 -2 -21 -2c-7 1 -14 1 -21 2c-62 4 -124 14 -186 14c-47 0 -92 -10 -136 -29c-7 -4 -13 -6 -17 -6c-8 1 -11 6 -12 21c0 9 -5 18 -9 27s-6 18 -6 27c0 25 15 46 31 66
c50 63 84 135 125 204c29 49 62 96 91 145c23 40 48 79 62 124c2 6 6 11 9 17c5 8 15 11 23 10c8 0 8 -11 9 -17c1 -7 2 -14 2 -21c0 -24 -7 -47 -16 -70c-37 -97 -94 -183 -147 -270c-23 -38 -41 -77 -63 -119c22 3 44 4 66 4c62 1 122 -9 183 -13c11 -1 23 -1 35 0
c0 65 -2 131 -3 197c-1 18 4 36 5 54c1 15 10 23 22 23c13 0 12 -16 13 -24c3 -37 4 -75 6 -112c2 -44 4 -88 4 -132c36 7 71 19 105 34l7 3c11 6 20 9 26 9c13 -1 18 -12 18 -37c1 -53 -7 -65 -56 -88c-33 -15 -66 -27 -101 -34v-10c-4 -95 -2 -191 -13 -286
c-3 -20 -5 -40 -18 -57c-5 -8 -13 -17 -23 -14z" />
    <glyph glyph-name="uniE085" unicode="&#xe085;" horiz-adv-x="603" 
d="M92 -372c-17 8 -35 15 -53 21c-14 4 -21 16 -19 26c8 34 0 70 18 102c7 13 13 17 28 15c41 -5 77 -23 115 -36c20 -8 40 -11 60 -11c50 0 95 23 125 64c14 21 33 40 33 66c0 7 -1 13 -4 20c-15 43 -47 69 -86 87c-40 18 -83 23 -126 28c-19 3 -27 5 -27 14c0 4 2 11 6 20
c7 18 11 36 9 56c0 5 -1 10 -1 14c0 33 12 63 25 94c16 36 29 73 50 107c9 14 17 20 30 21c20 2 39 0 48 0c73 0 139 15 203 41c1 1 3 2 4 2c15 7 26 10 34 10c15 0 19 -14 19 -49c0 -40 -13 -68 -57 -82c-66 -20 -131 -41 -200 -41c-19 0 -27 -4 -29 -20
c-1 -20 -8 -39 -16 -57c-2 -4 -3 -8 -3 -10c0 -7 5 -9 15 -10c28 -4 55 -13 82 -24c71 -31 107 -88 107 -155c0 -22 -4 -45 -12 -68c-24 -74 -62 -140 -118 -194c-37 -36 -108 -68 -179 -68c-28 1 -56 5 -81 17z" />
    <glyph glyph-name="uniE086" unicode="&#xe086;" horiz-adv-x="585" 
d="M271 -360c-10 -2 -20 -3 -30 -3c-29 0 -57 6 -84 18c-66 30 -100 85 -120 152c-12 37 -17 73 -17 109c0 72 22 141 60 207c34 60 71 116 126 157c58 43 122 73 194 82c4 1 8 1 12 1c26 -1 49 -13 63 -35c9 -15 13 -30 13 -47c0 -16 -4 -32 -11 -48c-4 -7 -9 -11 -15 -11
c-3 0 -8 1 -12 5c-16 13 -33 18 -51 18c-15 0 -31 -4 -46 -9c-112 -33 -189 -105 -237 -210c-15 -34 -30 -67 -42 -102c-4 -12 -6 -24 -6 -35c0 -16 4 -32 12 -47c19 -35 46 -60 82 -74c30 136 110 226 241 265c18 5 34 8 50 8c68 -1 112 -52 112 -134
c0 -102 -42 -178 -134 -225c-50 -25 -105 -34 -160 -42zM249 -248c48 2 96 11 142 25c49 15 88 44 116 87c5 8 7 14 7 20c0 10 -6 17 -16 24c-21 14 -43 20 -66 20c-18 1 -36 -3 -55 -11c-66 -27 -118 -71 -151 -136c-4 -8 -15 -17 -9 -25c5 -8 17 -3 27 -4h5z" />
    <glyph glyph-name="uniE087" unicode="&#xe087;" horiz-adv-x="612" 
d="M176 -345c-23 0 -34 7 -34 24c0 4 1 9 2 14c11 45 24 90 40 134c51 141 129 268 222 386c2 2 3 5 6 12c-44 -11 -87 -16 -130 -16c-26 0 -52 2 -77 6c-67 10 -126 35 -170 88c-8 10 -20 23 -12 33c4 6 13 9 23 9c5 0 10 -1 15 -2c30 -6 56 -17 78 -41
c34 -37 80 -52 127 -52c53 0 104 13 153 35c17 7 34 14 49 24c19 14 40 20 61 20c12 0 25 -2 37 -5c17 -4 26 -11 26 -21c0 -6 -4 -14 -12 -23c-93 -109 -177 -223 -242 -352c-37 -74 -67 -152 -84 -234c-4 -19 -12 -29 -33 -31c-15 -1 -29 -8 -45 -8z" />
    <glyph glyph-name="uniE088" unicode="&#xe088;" horiz-adv-x="524" 
d="M184 -428c-81 0 -161 64 -161 157c0 11 1 22 3 33c9 44 18 87 38 128c15 31 34 59 67 77c-20 14 -43 22 -59 39c-40 44 -52 100 -52 156c0 105 50 189 142 242c29 17 58 24 85 24c77 0 141 -59 160 -141c5 -26 8 -52 8 -78c0 -36 -5 -73 -15 -109c-1 -4 -3 -8 -3 -12
c1 -5 3 -9 9 -13c71 -46 98 -108 98 -178c1 -27 -3 -56 -11 -85c-37 -149 -151 -223 -292 -239c-6 -1 -11 -1 -17 -1zM179 73c43 0 78 8 112 12c16 2 25 9 34 20c27 34 36 76 43 117v8c0 8 -5 16 -10 23c-30 40 -72 60 -115 60c-37 0 -75 -15 -106 -46
c-32 -33 -54 -72 -68 -116c-2 -6 -2 -11 -2 -15c0 -13 6 -23 19 -33c30 -22 63 -30 93 -30zM228 -304c61 4 119 25 167 67c18 16 29 37 29 63c0 36 -14 65 -34 92c-23 32 -49 48 -79 48c-17 0 -36 -5 -56 -16c-33 -18 -65 -37 -95 -59c-20 -15 -38 -32 -45 -57
c-3 -9 -5 -17 -5 -26c1 -57 52 -111 118 -112z" />
    <glyph glyph-name="uniE089" unicode="&#xe089;" horiz-adv-x="514" 
d="M163 -421c-63 0 -115 45 -129 110c-6 30 -14 60 -14 91c1 18 9 32 16 48c3 6 9 10 15 10c8 0 9 -9 11 -15c3 -11 4 -23 4 -35c2 -62 37 -99 90 -99c10 0 21 1 32 4c58 14 98 54 136 97c66 74 92 166 114 259c6 24 10 49 15 73c-21 -36 -46 -68 -75 -97
c-42 -42 -95 -62 -146 -62c-67 0 -132 35 -165 105c-19 40 -28 82 -28 121c0 117 80 218 205 231c9 1 17 1 26 1c98 0 187 -62 216 -181c6 -26 8 -52 8 -78c0 -25 -2 -49 -4 -74c-8 -85 -29 -167 -60 -247c-37 -95 -92 -176 -179 -233c-30 -20 -60 -29 -88 -29zM236 72
c95 0 151 56 187 123c3 6 5 12 5 17c0 11 -6 21 -15 30c-16 16 -34 30 -54 41c-35 20 -71 29 -105 29c-67 0 -126 -37 -159 -106c-5 -9 -7 -18 -7 -27c0 -12 4 -23 12 -34c35 -47 83 -70 136 -73z" />
  </font>
</defs>
</svg>
